<?xml version="1.0" standalone="no"?>
<!DOCTYPE svg PUBLIC "-//W3C//DTD SVG 20010904//EN"
 "http://www.w3.org/TR/2001/REC-SVG-20010904/DTD/svg10.dtd">
<svg version="1.0" xmlns="http://www.w3.org/2000/svg"
 width="992.000000pt" height="992.000000pt" viewBox="0 0 992.000000 992.000000"
 preserveAspectRatio="xMidYMid meet">
<metadata>
Created by potrace 1.14, written by Peter Selinger 2001-2017
</metadata>
<g transform="translate(0.000000,992.000000) scale(0.100000,-0.100000)"
fill="#000000" stroke="none">
<path d="M5710 8543 c-30 -7 -66 -15 -80 -18 -14 -3 -34 -8 -45 -10 -11 -3
-30 -7 -42 -10 -13 -3 -31 -7 -41 -9 -9 -2 -35 -9 -57 -14 -22 -6 -51 -13 -65
-15 -14 -3 -45 -10 -70 -17 -25 -7 -52 -13 -60 -15 -8 -2 -73 -17 -144 -34
-71 -18 -136 -33 -145 -35 -9 -2 -23 -6 -31 -9 -8 -4 -27 -9 -42 -12 -54 -10
-76 -15 -331 -80 -141 -35 -271 -67 -289 -70 -17 -3 -35 -8 -40 -11 -4 -3 -16
-7 -25 -9 -10 -2 -38 -8 -63 -14 -25 -7 -56 -14 -70 -17 -14 -3 -43 -10 -65
-16 -22 -6 -47 -12 -55 -13 -8 -2 -15 -4 -15 -5 0 -1 -7 -3 -15 -5 -8 -2 -64
-15 -125 -30 -136 -32 -156 -36 -177 -38 -10 -1 -18 -5 -18 -9 0 -4 -3 -7 -7
-6 -6 1 -67 -9 -103 -17 -82 -19 -131 -28 -157 -29 -13 -1 -23 -4 -23 -7 0 -3
-6 -6 -12 -6 -12 -1 -24 -3 -98 -18 -14 -3 -41 -8 -60 -11 -35 -7 -58 -11 -95
-19 -20 -5 -28 -6 -125 -26 -30 -6 -63 -13 -73 -16 -14 -3 53 -53 234 -174
139 -93 257 -169 261 -169 4 0 8 -4 8 -10 0 -5 6 -10 14 -10 8 0 16 -3 18 -7
2 -5 30 -28 63 -53 135 -102 247 -239 263 -323 11 -61 3 -301 -13 -386 -2 -10
-5 -40 -6 -67 -3 -47 -5 -50 -54 -79 -27 -16 -52 -30 -55 -30 -16 -2 -362
-230 -510 -335 -132 -94 -344 -253 -365 -274 -9 -9 -19 -16 -23 -16 -4 0 -20
-12 -37 -26 -16 -14 -57 -47 -90 -72 -33 -26 -67 -52 -75 -59 -93 -76 -110
-85 -110 -58 0 9 -7 18 -15 21 -8 4 -15 12 -15 18 0 7 -11 23 -25 36 -14 13
-25 28 -25 32 0 5 -6 15 -12 22 -7 7 -29 32 -48 56 -246 303 -554 544 -845
661 -87 35 -226 77 -277 84 -145 20 -273 25 -383 12 -92 -10 -169 -28 -340
-82 -60 -19 -123 -37 -138 -41 -30 -7 -49 -35 -29 -42 7 -2 12 -8 12 -14 0 -5
9 -23 21 -39 11 -16 17 -29 13 -29 -4 0 0 -8 8 -17 8 -10 41 -65 74 -123 32
-58 63 -108 69 -112 5 -4 7 -8 3 -8 -4 0 1 -15 12 -32 65 -111 263 -533 275
-588 2 -8 4 -16 5 -17 2 -2 3 -6 4 -10 1 -5 4 -12 7 -18 7 -12 30 -79 34 -103
2 -9 4 -17 5 -17 1 0 3 -7 5 -15 24 -88 37 -139 40 -157 12 -57 16 -81 21
-123 3 -25 9 -56 13 -70 10 -33 11 -374 1 -414 -5 -17 -11 -53 -14 -81 -10
-79 -14 -101 -41 -205 -9 -36 -19 -73 -20 -83 -2 -9 -7 -22 -10 -27 -3 -5 -8
-18 -10 -27 -2 -10 -15 -47 -28 -83 -14 -36 -33 -87 -43 -115 -11 -27 -23 -53
-29 -57 -5 -4 -7 -8 -3 -8 4 0 -1 -16 -12 -35 -11 -20 -20 -40 -20 -46 0 -6
-9 -23 -19 -37 -10 -15 -20 -31 -21 -37 -8 -28 -31 -74 -40 -80 -6 -4 -8 -10
-5 -15 3 -5 0 -14 -7 -22 -7 -7 -20 -26 -28 -43 -23 -46 -192 -329 -200 -335
-4 -3 -13 -16 -20 -30 -7 -13 -51 -83 -97 -154 -47 -70 -81 -132 -76 -137 4
-4 30 -10 56 -13 27 -3 52 -8 56 -10 4 -3 30 -8 57 -12 27 -3 58 -8 69 -11 11
-2 34 -6 50 -9 33 -6 54 -10 105 -20 44 -9 328 -9 395 0 28 4 66 9 85 11 19 2
35 4 35 5 0 1 11 4 25 6 14 3 43 9 65 15 22 6 50 13 63 15 24 5 194 60 227 73
160 69 435 222 435 243 0 4 5 8 11 8 9 0 33 18 128 95 41 34 204 198 238 240
41 51 114 147 130 171 7 11 27 40 44 66 34 53 28 54 115 -10 28 -20 89 -64
135 -97 46 -32 86 -61 89 -65 3 -3 12 -9 21 -15 10 -5 38 -25 63 -42 26 -18
51 -33 56 -33 4 0 10 -4 12 -8 6 -16 334 -222 543 -343 61 -34 196 -106 300
-158 183 -93 218 -109 350 -166 76 -32 92 -39 135 -58 63 -28 172 -67 330
-118 85 -28 162 -54 170 -57 8 -3 20 -6 25 -8 80 -20 127 -34 135 -39 10 -6 6
-400 -4 -475 -3 -19 -7 -57 -10 -85 -8 -81 -15 -133 -35 -254 l-18 -114 52
-51 c65 -64 123 -116 130 -116 2 0 34 -18 70 -40 36 -22 65 -37 65 -34 0 4 6
2 13 -4 18 -15 153 -59 216 -70 59 -11 276 -9 326 2 166 38 299 94 478 202 50
30 93 54 98 54 4 0 9 3 11 8 2 4 27 23 56 41 30 19 79 54 110 77 31 24 70 54
87 66 52 40 108 91 195 179 99 99 112 115 218 254 44 59 127 223 156 310 l16
50 163 39 c89 22 180 46 202 54 22 7 45 15 50 16 6 1 16 5 23 9 6 5 12 6 12 3
0 -5 217 66 255 83 11 5 77 32 146 59 140 57 361 161 370 175 3 5 8 7 10 6 6
-5 150 76 257 143 51 32 97 58 101 58 5 0 11 7 15 15 3 8 10 15 16 15 11 0
218 150 281 204 116 100 171 151 253 232 117 117 123 125 269 304 7 8 28 38
47 65 19 28 38 52 43 53 4 2 7 10 7 18 0 8 5 14 10 14 6 0 10 4 10 9 0 5 16
33 36 62 20 30 40 63 46 74 5 11 14 29 21 40 18 29 51 89 52 95 1 3 18 39 38
81 23 47 36 86 33 100 -16 88 -68 261 -97 326 -10 24 -19 48 -19 55 0 18 -157
332 -198 398 -38 60 -170 257 -183 274 -145 187 -186 235 -299 351 -95 98
-301 285 -314 285 -3 0 -14 8 -24 18 -34 31 -66 57 -132 102 -36 25 -71 51
-78 58 -7 6 -17 12 -22 12 -5 0 -15 7 -23 15 -18 17 -73 51 -109 67 -16 7 -28
16 -28 20 0 4 -7 8 -15 8 -8 0 -15 5 -15 12 0 6 -3 8 -7 5 -3 -4 -13 -1 -22 7
-23 20 -290 156 -307 156 -8 0 -14 5 -14 10 0 6 -8 10 -18 10 -10 0 -22 4 -27
9 -15 13 -256 105 -370 141 -55 18 -113 36 -130 42 -26 9 -41 33 -112 177 -95
192 -126 249 -208 385 -113 188 -171 272 -286 418 -72 90 -257 283 -315 329
-69 54 -138 100 -196 133 -66 37 -188 89 -188 80 0 -3 -9 0 -19 5 -48 26 -273
35 -361 14z"/>
</g>
</svg>
