<svg width="1512" height="790" viewBox="0 0 1512 790" fill="none" xmlns="http://www.w3.org/2000/svg">
<path d="M994.5 360C864.5 282 809.667 592.833 798.5 758L1628 789.5C1627.83 529.5 1614.89 0.500015 1562 0.500015C1450 0.500017 1424.5 126 1389.5 136.5C1364.5 144 1314 131.796 1293.5 131C1139 125 1157 457.5 994.5 360Z" fill="#3F728D"/>
<path fill-rule="evenodd" clip-rule="evenodd" d="M229.975 114.989C-81.5558 114.989 -76.6789 323.255 -64.4103 531.925C133.675 538.34 457.049 460.431 593.976 420.675C574.257 396.429 555 370.792 535.695 345.091C449.752 230.677 362.852 114.989 229.975 114.989ZM1302.98 207.766C1219.5 277.5 1130.54 367.273 1072.51 420.675C1211.04 454.418 1573.16 514.887 1767.53 486.824C1653.02 293.892 1486.99 54.0589 1302.98 207.766Z" fill="#374E95"/>
<path d="M593.976 420.675C457.049 460.431 133.675 538.34 -64.4103 531.925C-64.1437 536.46 -70.3566 547.006 -70.0861 551.54L-69.9703 553.482L-69.9702 553.483C-68.3109 581.29 -66.6567 609.012 -65.7399 636.157C-39.1031 633.822 -55.7841 670.388 -25.4995 665C90.0958 644.435 143 598 335 550C426.5 487 508.63 482.026 554.5 464.066C576.206 455.568 595.568 447.688 612 440.718C608.112 436.1 597.826 425.409 593.976 420.675Z" fill="#233C77"/>
<path d="M1767.53 486.824C1573.16 514.887 1211.04 454.418 1072.51 420.675C1067.29 425.486 1055.63 436.173 1050.5 440.718C1088.99 455.828 1127.16 463.634 1206.5 486C1360.5 494 1367 530.5 1425 575C1585 679 1679.51 601.899 1830.1 616.613C1814.31 586.828 1797 536.483 1767.53 486.824Z" fill="#233C77"/>
<path d="M-65.7399 789H1917C1915.93 787.648 1896.17 748.138 1875.6 707L1874.62 705.038L1874.59 704.981C1864.89 685.56 1855.06 665.91 1847 649.862C1839.07 634.08 1832.84 621.782 1830.1 616.613C1679.51 601.899 1585 679 1425 575C1367 530.5 1360.5 494 1206.5 486C1127.16 463.634 1088.99 455.828 1050.5 440.718H612C595.568 447.688 576.206 455.568 554.5 464.066C508.63 482.026 426.5 487 335 550C143 598 90.0958 644.435 -25.4995 665C-55.7841 670.388 -39.1031 633.822 -65.7399 636.157C-65.524 642.551 -65.5122 674.107 -65.5598 707C-65.5919 729.176 -65.651 751.96 -65.6927 768.051C-65.7201 778.585 -65.7399 786.251 -65.7399 789Z" fill="url(#paint0_linear_111_554)"/>
<path d="M58.0933 530.823V538H94.9267V530.823H110L101.387 507.924L86.3133 500.975H98.78L83.48 471.354H77.9267L81.5533 467.025L72.3733 439L62.8533 467.025L66.7067 471.354H61.38L50.84 500.975H65.2333L49.14 509.405L42 534.696L58.0933 530.823Z" fill="#233C77"/>
<path d="M140.093 521.823V529H176.927V521.823H192L183.387 498.924L168.313 491.975H180.78L165.48 462.354H159.927L163.553 458.025L154.373 430L144.853 458.025L148.707 462.354H143.38L132.84 491.975H147.233L131.14 500.405L124 525.696L140.093 521.823Z" fill="#233C77"/>
<path d="M1366.64 476.228V485H1411.6V476.228H1430L1419.49 448.241L1401.09 439.747H1416.31L1397.63 403.544H1390.85L1395.28 398.253L1384.07 364L1372.45 398.253L1377.16 403.544H1370.66L1357.79 439.747H1375.36L1355.72 450.051L1347 480.962L1366.64 476.228Z" fill="#233C77"/>
<path d="M348.613 484.053V495H404.947V484.053H428L414.827 449.127L391.773 438.527H410.84L387.44 393.349H378.947L384.493 386.746L370.453 344L355.893 386.746L361.787 393.349H353.64L337.52 438.527H359.533L334.92 451.386L324 489.961L348.613 484.053Z" fill="#233C77"/>
<path d="M1190.12 450.083V459H1236.16V450.083H1255L1244.23 421.633L1225.39 412.999H1240.97L1221.85 376.198H1214.91L1219.44 370.819L1207.97 336L1196.07 370.819L1200.88 376.198H1194.23L1181.05 412.999H1199.04L1178.93 423.473L1170 454.895L1190.12 450.083Z" fill="#233C77"/>
<path d="M1273.09 466.778V477H1330.5V466.778H1354L1340.57 434.165L1317.08 424.267H1336.51L1312.66 382.081H1304L1309.66 375.915L1295.35 336L1280.51 375.915L1286.51 382.081H1278.21L1261.78 424.267H1284.22L1259.13 436.274L1248 472.295L1273.09 466.778Z" fill="#233C77"/>
<path d="M279.713 503.053V514H352.297V503.053H382L365.027 468.127L335.323 457.527H359.89L329.74 412.349H318.797L325.943 405.746L307.853 363L289.093 405.746L296.687 412.349H286.19L265.42 457.527H293.783L262.07 470.386L248 508.961L279.713 503.053Z" fill="#233C77"/>
<g filter="url(#filter0_d_111_554)">
<path d="M859 468.138C859 476.662 844.929 482 803.506 482C762.083 482 722 481.188 722 472.664C722 464.14 762.083 471.155 803.506 471.155C844.929 471.155 859 459.614 859 468.138Z" fill="#DADFF1"/>
</g>
<g filter="url(#filter1_d_111_554)">
<path d="M819 452C819 460.477 803.273 459 755.5 459C707.727 459 668.5 456.692 668.5 448.215C668.5 439.739 707.727 448.215 755.5 448.215C803.273 448.215 819 443.523 819 452Z" fill="#DADFF1"/>
</g>
<g filter="url(#filter2_d_111_554)">
<path d="M807.757 497.396C807.986 490.209 778.078 493.501 743.554 492.401C709.029 491.3 674.573 483.007 674.344 490.194C674.115 497.381 708.685 502.099 743.209 503.199C777.733 504.3 807.528 504.582 807.757 497.396Z" fill="#B5BFE3"/>
</g>
<g filter="url(#filter3_d_111_554)">
<path d="M723.497 520.996C723.058 514.444 763.645 519.601 791.906 517.705C820.166 515.808 848.119 507.351 848.558 513.903C848.998 520.456 820.827 525.654 792.566 527.55C764.306 529.446 723.937 527.549 723.497 520.996Z" fill="#B5BFE3"/>
</g>
<g filter="url(#filter4_d_111_554)">
<path d="M810.5 543.569C810.5 537.789 784.152 539.569 753.5 539.569C722.848 539.569 696 533.789 696 539.569C696 545.348 724.348 547.957 755 547.957C785.652 547.957 810.5 549.348 810.5 543.569Z" fill="#909FD5"/>
</g>
<g filter="url(#filter5_d_111_554)">
<path d="M739 559.507C739 553.782 761.091 555.545 786.79 555.545C812.49 555.545 835 549.819 835 555.545C835 561.27 811.232 563.854 785.533 563.854C759.833 563.854 739 565.233 739 559.507Z" fill="#909FD5"/>
</g>
<g filter="url(#filter6_d_111_554)">
<path d="M780 575.507C780 569.782 766.883 571.545 751.624 571.545C736.365 571.545 723 565.819 723 571.545C723 577.27 737.112 579.854 752.371 579.854C767.63 579.854 780 581.233 780 575.507Z" fill="#6E80C4"/>
</g>
<defs>
<filter id="filter0_d_111_554" x="718" y="465" width="145" height="25" filterUnits="userSpaceOnUse" color-interpolation-filters="sRGB">
<feFlood flood-opacity="0" result="BackgroundImageFix"/>
<feColorMatrix in="SourceAlpha" type="matrix" values="0 0 0 0 0 0 0 0 0 0 0 0 0 0 0 0 0 0 127 0" result="hardAlpha"/>
<feOffset dy="4"/>
<feGaussianBlur stdDeviation="2"/>
<feComposite in2="hardAlpha" operator="out"/>
<feColorMatrix type="matrix" values="0 0 0 0 1 0 0 0 0 1 0 0 0 0 1 0 0 0 0.25 0"/>
<feBlend mode="normal" in2="BackgroundImageFix" result="effect1_dropShadow_111_554"/>
<feBlend mode="normal" in="SourceGraphic" in2="effect1_dropShadow_111_554" result="shape"/>
</filter>
<filter id="filter1_d_111_554" x="664.5" y="444.448" width="195" height="38.8365" filterUnits="userSpaceOnUse" color-interpolation-filters="sRGB">
<feFlood flood-opacity="0" result="BackgroundImageFix"/>
<feColorMatrix in="SourceAlpha" type="matrix" values="0 0 0 0 0 0 0 0 0 0 0 0 0 0 0 0 0 0 127 0" result="hardAlpha"/>
<feOffset dy="4"/>
<feGaussianBlur stdDeviation="2"/>
<feComposite in2="hardAlpha" operator="out"/>
<feColorMatrix type="matrix" values="0 0 0 0 1 0 0 0 0 1 0 0 0 0 1 0 0 0 0.25 0"/>
<feBlend mode="normal" in2="BackgroundImageFix" result="effect1_dropShadow_111_554"/>
<feBlend mode="normal" in="SourceGraphic" in2="effect1_dropShadow_111_554" result="shape"/>
</filter>
<filter id="filter2_d_111_554" x="670.343" y="487.293" width="141.416" height="24.4965" filterUnits="userSpaceOnUse" color-interpolation-filters="sRGB">
<feFlood flood-opacity="0" result="BackgroundImageFix"/>
<feColorMatrix in="SourceAlpha" type="matrix" values="0 0 0 0 0 0 0 0 0 0 0 0 0 0 0 0 0 0 127 0" result="hardAlpha"/>
<feOffset dy="4"/>
<feGaussianBlur stdDeviation="2"/>
<feComposite in2="hardAlpha" operator="out"/>
<feColorMatrix type="matrix" values="0 0 0 0 1 0 0 0 0 1 0 0 0 0 1 0 0 0 0.25 0"/>
<feBlend mode="normal" in2="BackgroundImageFix" result="effect1_dropShadow_111_554"/>
<feBlend mode="normal" in="SourceGraphic" in2="effect1_dropShadow_111_554" result="shape"/>
</filter>
<filter id="filter3_d_111_554" x="719.494" y="511.454" width="133.069" height="24.7942" filterUnits="userSpaceOnUse" color-interpolation-filters="sRGB">
<feFlood flood-opacity="0" result="BackgroundImageFix"/>
<feColorMatrix in="SourceAlpha" type="matrix" values="0 0 0 0 0 0 0 0 0 0 0 0 0 0 0 0 0 0 127 0" result="hardAlpha"/>
<feOffset dy="4"/>
<feGaussianBlur stdDeviation="2"/>
<feComposite in2="hardAlpha" operator="out"/>
<feColorMatrix type="matrix" values="0 0 0 0 1 0 0 0 0 1 0 0 0 0 1 0 0 0 0.25 0"/>
<feBlend mode="normal" in2="BackgroundImageFix" result="effect1_dropShadow_111_554"/>
<feBlend mode="normal" in="SourceGraphic" in2="effect1_dropShadow_111_554" result="shape"/>
</filter>
<filter id="filter4_d_111_554" x="692" y="537" width="122.5" height="19.1039" filterUnits="userSpaceOnUse" color-interpolation-filters="sRGB">
<feFlood flood-opacity="0" result="BackgroundImageFix"/>
<feColorMatrix in="SourceAlpha" type="matrix" values="0 0 0 0 0 0 0 0 0 0 0 0 0 0 0 0 0 0 127 0" result="hardAlpha"/>
<feOffset dy="4"/>
<feGaussianBlur stdDeviation="2"/>
<feComposite in2="hardAlpha" operator="out"/>
<feColorMatrix type="matrix" values="0 0 0 0 1 0 0 0 0 1 0 0 0 0 1 0 0 0 0.25 0"/>
<feBlend mode="normal" in2="BackgroundImageFix" result="effect1_dropShadow_111_554"/>
<feBlend mode="normal" in="SourceGraphic" in2="effect1_dropShadow_111_554" result="shape"/>
</filter>
<filter id="filter5_d_111_554" x="735" y="553" width="104" height="19" filterUnits="userSpaceOnUse" color-interpolation-filters="sRGB">
<feFlood flood-opacity="0" result="BackgroundImageFix"/>
<feColorMatrix in="SourceAlpha" type="matrix" values="0 0 0 0 0 0 0 0 0 0 0 0 0 0 0 0 0 0 127 0" result="hardAlpha"/>
<feOffset dy="4"/>
<feGaussianBlur stdDeviation="2"/>
<feComposite in2="hardAlpha" operator="out"/>
<feColorMatrix type="matrix" values="0 0 0 0 1 0 0 0 0 1 0 0 0 0 1 0 0 0 0.25 0"/>
<feBlend mode="normal" in2="BackgroundImageFix" result="effect1_dropShadow_111_554"/>
<feBlend mode="normal" in="SourceGraphic" in2="effect1_dropShadow_111_554" result="shape"/>
</filter>
<filter id="filter6_d_111_554" x="719" y="569" width="65" height="19" filterUnits="userSpaceOnUse" color-interpolation-filters="sRGB">
<feFlood flood-opacity="0" result="BackgroundImageFix"/>
<feColorMatrix in="SourceAlpha" type="matrix" values="0 0 0 0 0 0 0 0 0 0 0 0 0 0 0 0 0 0 127 0" result="hardAlpha"/>
<feOffset dy="4"/>
<feGaussianBlur stdDeviation="2"/>
<feComposite in2="hardAlpha" operator="out"/>
<feColorMatrix type="matrix" values="0 0 0 0 1 0 0 0 0 1 0 0 0 0 1 0 0 0 0.25 0"/>
<feBlend mode="normal" in2="BackgroundImageFix" result="effect1_dropShadow_111_554"/>
<feBlend mode="normal" in="SourceGraphic" in2="effect1_dropShadow_111_554" result="shape"/>
</filter>
<linearGradient id="paint0_linear_111_554" x1="824.5" y1="789" x2="828.5" y2="183.5" gradientUnits="userSpaceOnUse">
<stop offset="0.170817" stop-color="#2E4F9E"/>
<stop offset="1" stop-color="#8BB5CB"/>
</linearGradient>
</defs>
</svg>
