<svg version="1.2" xmlns="http://www.w3.org/2000/svg" viewBox="0 0 416 416" width="416" height="416">
	<title>fish-svgrepo-com (1)-svg</title>
	<style>
		.s0 { fill: #f74b4b } 
		.s1 { fill: #f9d43a } 
		.s2 { fill: #ffffff } 
		.s3 { fill: #4d4d4d } 
	</style>
	<g id="Layer">
		<path id="Layer" class="s0" d="m122.5 138.5v99.4l-36.1 8.1c-3.4 0.8-6.8 1.1-10.1 1.1c-26.3-0.6-46.7-26.3-38.7-53.3l4.9-16.5c0.9-3.3 1.4-6.6 1.4-9.8c0-18.2-14.7-34.1-34.2-34.1c-5.3 0-9.7-4.3-9.7-9.7c0-5.4 4.4-9.8 9.7-9.8l60.1 13.1z" />
		<path id="Layer" class="s1" d="m405.7 312.9h-264.7c-29 0-52.5-23.5-52.5-52.4v-125.3c0-25.3-20.5-45.8-45.8-45.8c-5.3 0-9.7-4.3-9.7-9.7c0-5.4 4.4-9.8 9.7-9.8h218c54.8 0 99.3 44.5 99.3 99.4v78.4c0 25.2 20.5 45.7 45.7 45.7c5.4 0 9.8 4.4 9.8 9.8c0 5.4-4.4 9.7-9.8 9.7z" />
		<g id="Layer">
			<path id="Layer" class="s2" d="m329.4 299.6c-10.4 0-18.7-8.4-18.7-18.8c0-10.3 8.3-18.7 18.7-18.7c10.3 0 18.7 8.4 18.7 18.7c0 10.4-8.4 18.8-18.7 18.8z" />
			<path id="Layer" class="s3" d="m329.4 292.3c-6.4 0-11.5-5.1-11.5-11.5c0-6.3 5.1-11.4 11.5-11.4c6.3 0 11.4 5.1 11.4 11.4c0 6.4-5.1 11.5-11.4 11.5z" />
		</g>
		<path id="Layer" class="s0" d="m207.2 345.5h-48.9v-14.8c0-17.1 13.8-30.9 30.9-30.9h53.1v10.7c0 19.3-15.7 35-35.1 35z" />
	</g>
</svg>