<svg width="100" height="100" viewBox="0 0 100 100" fill="none" xmlns="http://www.w3.org/2000/svg">
<circle cx="50" cy="50" r="49.5" fill="white" fill-opacity="0.42" stroke="white"/>
<mask id="path-2-inside-1_23_82" fill="white">
<path d="M15.6383 43.8943C17.2515 35.6248 21.835 28.2315 28.5243 23.1089C35.2136 17.9864 43.5462 15.4887 51.9503 16.0871L51.5528 21.6695C44.512 21.1682 37.5311 23.2607 31.927 27.5522C26.3228 31.8438 22.4828 38.0378 21.1313 44.9658L15.6383 43.8943Z"/>
</mask>
<path d="M15.6383 43.8943C17.2515 35.6248 21.835 28.2315 28.5243 23.1089C35.2136 17.9864 43.5462 15.4887 51.9503 16.0871L51.5528 21.6695C44.512 21.1682 37.5311 23.2607 31.927 27.5522C26.3228 31.8438 22.4828 38.0378 21.1313 44.9658L15.6383 43.8943Z" stroke="white" stroke-width="10" mask="url(#path-2-inside-1_23_82)"/>
</svg>
