<svg width="62" height="46" viewBox="0 0 62 46" fill="none" xmlns="http://www.w3.org/2000/svg">
<path d="M36 2.07164C39.9821 1.18672 43.8333 8.73832 45 11.5717C45 12.429 31.3333 13.2622 24.5 13.5716C24.5 10.0716 26 8.57166 21.5 5.57165C24 5.07162 31.5 3.07166 36 2.07164Z" fill="#9E5A63" stroke="black" stroke-width="3"/>
<path d="M3 34.5717C8.5 26.0717 7.5 21.0717 3.5 14.0717C8.7 12.4717 13 17.7383 14.5 20.5717C22 14.5717 27 10.5717 37.5 10.5717C52.7 10.5717 58.8333 20.2383 60 25.0717C57 31.5717 48.5 37.0717 36.5 37.0717C26.9 37.0717 18.1667 30.405 14.5 27.5717C11.7 33.9717 5.66667 35.0717 3 34.5717Z" fill="#9E5A63" stroke="black" stroke-width="3"/>
<path d="M31.5 43.0717C32 40.0717 32 37.0717 31.5 35.5717C31.3908 35.1717 39.1212 35.7383 43 36.0717C43 39.2717 39.5 42.0717 36.5 43.5717C33.5 45.0717 31.5 43.0717 31.5 43.0717Z" fill="#9E5A63" stroke="black" stroke-width="3"/>
<circle cx="48" cy="23.0717" r="2.5" fill="black"/>
</svg>
