<svg width="26" height="20" viewBox="0 0 26 20" fill="none" xmlns="http://www.w3.org/2000/svg">
<path d="M15.0995 1.03061C16.8008 0.652523 18.4463 3.87897 18.9448 5.08953C18.9448 5.45582 13.1056 5.81182 10.1861 5.94402C10.1861 4.44864 10.8269 3.80777 8.9043 2.526C9.97243 2.31236 13.1768 1.45787 15.0995 1.03061Z" fill="#9E5A63" stroke="black"/>
<path d="M1 14.9164C3.3499 11.2847 2.92264 9.14843 1.21363 6.15765C3.43535 5.47404 5.27254 7.72425 5.91342 8.9348C9.11783 6.37128 11.2541 4.66226 15.7403 4.66226C22.2345 4.66226 24.855 8.79238 25.3535 10.8574C24.0717 13.6346 20.4401 15.9845 15.313 15.9845C11.2114 15.9845 7.48002 13.1361 5.91342 11.9256C4.71711 14.66 2.13934 15.13 1 14.9164Z" fill="#9E5A63" stroke="black"/>
<path d="M13.1768 18.548C13.3904 17.2663 13.3904 15.9845 13.1768 15.3436C13.1301 15.1727 16.4329 15.4148 18.0902 15.5573C18.0902 16.9245 16.5948 18.1208 15.313 18.7617C14.0313 19.4025 13.1768 18.548 13.1768 18.548Z" fill="#9E5A63" stroke="black"/>
<circle cx="20.2263" cy="10.0029" r="1.06814" fill="black"/>
</svg>
