<?xml version="1.0" encoding="UTF-8"?>
<!DOCTYPE svg  PUBLIC '-//W3C//DTD SVG 1.1//EN'  'http://www.w3.org/Graphics/SVG/1.1/DTD/svg11.dtd'>
<svg clip-rule="evenodd" fill-rule="evenodd" stroke-linejoin="round" stroke-miterlimit="2" version="1.1" viewBox="0 0 1799 3317" xml:space="preserve" xmlns="http://www.w3.org/2000/svg"><g fill-rule="nonzero"><path d="m1533.4 3195.4c-17.942 58.329-41.754 96.634-61.567 120.63h78.292c39.042-24.871 87.45-59.167 142.78-105.39 149.72-125.07 123.53-253.62 27.313-260.95-2.558-0.196-5.083-0.291-7.583-0.291-91.459 8e-3 -143.12 128.58-179.24 245.99z" fill="url(#p)"/><path d="m1597.3 2412.2c-101.46 16.375-123.9 166.81-132.28 300.97-8.388 134.15-64.109 185.85-64.109 185.85l16.038 20.775s93.15-63.75 217.05-230.56c116.66-157.05 71.062-278.47-19.354-278.46-5.617-0-11.413 0.467-17.346 1.425z" fill="url(#h)"/><path d="m1285.6 1927c-95.684 37.521-85.7 189.29-65.442 322.18 20.263 132.88-23.225 195.22-23.225 195.22l20.071 16.896s77.517-82.054 163.22-271.35c74.541-164.65 20.212-270.2-58.163-270.2-11.733 0-24.004 2.367-36.458 7.25z" fill="url(#g)"/><path d="m1009.6 1482.5c-98.675 38.696-88.383 195.22-67.487 332.26 20.9 137.04-23.95 201.34-23.95 201.34l20.7 17.425s79.937-84.625 168.32-279.84c76.879-169.8 20.85-278.66-59.984-278.66-12.095 0-24.75 2.438-37.6 7.475z" fill="url(#f)"/><path d="m804.26 1087.5c-98.679 38.695-88.387 195.22-67.492 332.27 20.9 137.04-23.954 201.33-23.954 201.33l20.704 17.425s79.934-84.621 168.32-279.85c76.884-169.8 20.85-278.66-59.983-278.65-12.096-0-24.75 2.437-37.596 7.475z" fill="url(#e)"/><path d="m740.91 708.3c-105.62 8.85-140.54 161.78-159.72 299.07-19.18 137.29-80.546 186.07-80.546 186.07l14.854 22.621s100.8-58.221 241.34-220c136.16-156.73 92.684-288.18-6.208-288.18-3.183 0-6.429 0.138-9.721 0.413z" fill="url(#d)"/><path d="m637.38 316.08c-105.69 8.067-141.73 160.73-161.92 297.88-20.2 137.15-81.925 185.47-81.925 185.47l14.683 22.733s101.23-57.475 242.96-218.21c137.7-156.16 94.583-288.23-4.904-288.22-2.913 0-5.888 0.113-8.892 0.346z" fill="url(#c)"/><path d="m342.63 17.721c-87.725 59.487-43.2 209.9 7.379 338.97 50.579 129.07 21 201.66 21 201.66l24.029 12.437s59.33-100.16 102.53-310.05c34.55-167.89-29.167-260.73-100.95-260.73-17.963-0-36.434 5.817-53.988 17.721z" fill="url(#b)"/><path d="m1158.9 2924.4c-104.7 6.163-135.57 145.37 24.8 284.1 52.654 45.546 99.542 80.758 138.78 107.51h91.088c-19.1-26.634-40.221-65.675-56.233-121.1-37.275-129.06-91.455-270.68-192.01-270.7-2.125-4e-3 -4.254 0.062-6.421 0.187z" fill="url(#a)"/><path d="m1048.1 2537.7c-102.71 21.233-113.12 163.44 65.621 277.52 178.75 114.08 290.73 141.04 290.73 141.04l7.746-25.625s-71.921-29.071-128.64-153.96c-52.721-116.09-122.14-241.19-214.14-241.19-6.975 0-14.079 0.717-21.321 2.217z" fill="url(#o)"/><path d="m801.62 2149.2c-95.809 42.675-75.638 183.83 123.34 257.12 198.98 73.3 314.14 75.737 314.14 75.737l2.096-26.696s-76.467-13.041-158.54-122.95c-70.125-93.916-155.67-192.26-238.85-192.27-14.162 0-28.246 2.85-42.187 9.059z" fill="url(#n)"/><path d="m538.49 1752.5c-93.52 47.475-66.216 187.42 136.22 250.54 202.44 63.121 317.58 59.712 317.58 59.712l0.742-26.766s-77.029-9.154-164.56-114.76c-73.175-88.283-161.29-180.04-242.87-180.04-16.013-0-31.767 3.533-47.109 11.32z" fill="url(#m)"/><path d="m345.46 1324.2c-97.629 38.321-83.825 180.24 111.66 262.41 195.48 82.17 310.42 89.779 310.42 89.779l3.292-26.571s-75.804-16.471-152.85-129.96c-67.075-98.8-149.92-202.91-234.66-202.91-12.596-4e-3 -25.23 2.296-37.863 7.254z" fill="url(#l)"/><path d="m180.35 846.11c-101.42 26.709-104.2 169.27 80.396 273.6 184.6 104.35 297.87 125.27 297.87 125.27l6.363-26.008s-73.371-25.175-136.7-146.85c-57.7-110.86-131.89-229.5-221.33-229.51-8.725-4e-3 -17.584 1.125-26.596 3.5z" fill="url(#k)"/><path d="m73.756 392.22c-102.71 21.241-113.11 163.45 65.638 277.52 178.75 114.07 290.74 141.02 290.74 141.02l7.746-25.629s-71.921-29.062-128.65-153.95c-52.725-116.08-122.15-241.16-214.15-241.18-6.983-0-14.079 0.717-21.325 2.217z" fill="url(#j)"/><path d="m378.91 451.92c-26.596 225.25 14.963 476.74 127.05 768.82 111.57 290.74 296.05 629.69 564 1036.2 268.25 407.02 338.39 769.48 350 1001.9 0.979 19.65 1.571 38.709 1.829 57.184h68.588c-0.255-18.359-0.825-37.275-1.755-56.767-7.341-154.06-35.87-311.18-84.791-466.98-61.009-194.3-154.08-387.1-276.62-573.02-520.78-790.18-730.56-1332.8-680.2-1759.3 2.217-18.808-11.221-35.846-30.029-38.066-1.367-0.163-2.729-0.242-4.071-0.242-17.138-0-31.929 12.837-33.992 30.267z" fill="url(#i)"/></g><defs><linearGradient id="p" x2="1" gradientTransform="matrix(130.84 -466.58 466.58 130.84 1559.3 3405.8)" gradientUnits="userSpaceOnUse"><stop stop-color="#da1c4b" offset="0"/><stop stop-color="#e3646a" offset=".01"/><stop stop-color="#7fcbca" offset="1"/></linearGradient><linearGradient id="h" x2="1" gradientTransform="matrix(19.298 -515.77 515.77 19.298 1544.3 2924.6)" gradientUnits="userSpaceOnUse"><stop stop-color="#da1c4b" offset="0"/><stop stop-color="#e3646a" offset=".01"/><stop stop-color="#7fcbca" offset="1"/></linearGradient><linearGradient id="g" x2="1" gradientTransform="matrix(-90.531 -508.12 508.12 -90.531 1342.4 2438.9)" gradientUnits="userSpaceOnUse"><stop stop-color="#da1c4b" offset="0"/><stop stop-color="#e3646a" offset=".01"/><stop stop-color="#7fcbca" offset="1"/></linearGradient><linearGradient id="f" x2="1" gradientTransform="matrix(-93.365 -524.03 524.03 -93.365 1068.3 2010.5)" gradientUnits="userSpaceOnUse"><stop stop-color="#da1c4b" offset="0"/><stop stop-color="#e3646a" offset=".01"/><stop stop-color="#7fcbca" offset="1"/></linearGradient><linearGradient id="e" x2="1" gradientTransform="matrix(-93.365 -524.03 524.03 -93.365 862.9 1615.5)" gradientUnits="userSpaceOnUse"><stop stop-color="#da1c4b" offset="0"/><stop stop-color="#e3646a" offset=".01"/><stop stop-color="#7fcbca" offset="1"/></linearGradient><linearGradient id="d" x2="1" gradientTransform="matrix(60.442 -528.84 528.84 60.442 646.07 1231)" gradientUnits="userSpaceOnUse"><stop stop-color="#da1c4b" offset="0"/><stop stop-color="#e3646a" offset=".01"/><stop stop-color="#7fcbca" offset="1"/></linearGradient><linearGradient id="c" x2="1" gradientTransform="matrix(64.356 -528.38 528.38 64.356 538.67 838.05)" gradientUnits="userSpaceOnUse"><stop stop-color="#da1c4b" offset="0"/><stop stop-color="#e3646a" offset=".01"/><stop stop-color="#7fcbca" offset="1"/></linearGradient><linearGradient id="b" x2="1" gradientTransform="matrix(-206.54 -490.58 490.58 -206.54 516.17 519.8)" gradientUnits="userSpaceOnUse"><stop stop-color="#da1c4b" offset="0"/><stop stop-color="#e3646a" offset=".01"/><stop stop-color="#7fcbca" offset="1"/></linearGradient><linearGradient id="a" x2="1" gradientTransform="matrix(-133.46 -509.51 -509.51 133.46 1325.2 3423)" gradientUnits="userSpaceOnUse"><stop stop-color="#da1c4b" offset="0"/><stop stop-color="#e3646a" offset=".01"/><stop stop-color="#7fcbca" offset="1"/></linearGradient><linearGradient id="o" x2="1" gradientTransform="matrix(-205.73 -484.86 -484.86 205.73 1284.7 3007)" gradientUnits="userSpaceOnUse"><stop stop-color="#da1c4b" offset="0"/><stop stop-color="#e3646a" offset=".01"/><stop stop-color="#7fcbca" offset="1"/></linearGradient><linearGradient id="n" x2="1" gradientTransform="matrix(-304.48 -429.77 -429.77 304.48 1133 2557.2)" gradientUnits="userSpaceOnUse"><stop stop-color="#da1c4b" offset="0"/><stop stop-color="#e3646a" offset=".01"/><stop stop-color="#7fcbca" offset="1"/></linearGradient><linearGradient id="m" x2="1" gradientTransform="matrix(-325.88 -413.78 -413.78 325.88 890.12 2143.2)" gradientUnits="userSpaceOnUse"><stop stop-color="#da1c4b" offset="0"/><stop stop-color="#e3646a" offset=".01"/><stop stop-color="#7fcbca" offset="1"/></linearGradient><linearGradient id="l" x2="1" gradientTransform="matrix(-284.85 -443.02 -443.02 284.85 658.15 1746.8)" gradientUnits="userSpaceOnUse"><stop stop-color="#da1c4b" offset="0"/><stop stop-color="#e3646a" offset=".01"/><stop stop-color="#7fcbca" offset="1"/></linearGradient><linearGradient id="k" x2="1" gradientTransform="matrix(-231.41 -473.14 -473.14 231.41 441.8 1302.1)" gradientUnits="userSpaceOnUse"><stop stop-color="#da1c4b" offset="0"/><stop stop-color="#e3646a" offset=".01"/><stop stop-color="#7fcbca" offset="1"/></linearGradient><linearGradient id="j" x2="1" gradientTransform="matrix(-205.76 -484.84 -484.84 205.76 310.42 861.57)" gradientUnits="userSpaceOnUse"><stop stop-color="#da1c4b" offset="0"/><stop stop-color="#e3646a" offset=".01"/><stop stop-color="#7fcbca" offset="1"/></linearGradient><linearGradient id="i" x2="1" gradientTransform="matrix(-1223.1 -3213.6 -3213.6 1223.1 1554.6 3663.8)" gradientUnits="userSpaceOnUse"><stop stop-color="#da1c4b" offset="0"/><stop stop-color="#e3646a" offset=".01"/><stop stop-color="#7fcbca" offset="1"/></linearGradient></defs></svg>
