<svg width="47" height="403" viewBox="0 0 47 403" fill="none" xmlns="http://www.w3.org/2000/svg">
<path fill-rule="evenodd" clip-rule="evenodd" d="M23 74C35.7025 74 46 57.4345 46 37C46 16.5655 35.7025 0 23 0C10.2975 0 0 16.5655 0 37C0 57.4345 10.2975 74 23 74ZM23.5 61C30.4036 61 36 50.2548 36 37C36 23.7452 30.4036 13 23.5 13C16.5964 13 11 23.7452 11 37C11 50.2548 16.5964 61 23.5 61Z" fill="#999999"/>
<ellipse cx="34.0941" cy="13.0896" rx="4.5" ry="12.5" transform="rotate(-29.6468 34.0941 13.0896)" fill="#C4C4C4"/>
<path fill-rule="evenodd" clip-rule="evenodd" d="M23 121C35.7025 121 46 104.435 46 84C46 63.5655 35.7025 47 23 47C10.2975 47 0 63.5655 0 84C0 104.435 10.2975 121 23 121ZM23.5 108C30.4036 108 36 97.2548 36 84C36 70.7452 30.4036 60 23.5 60C16.5964 60 11 70.7452 11 84C11 97.2548 16.5964 108 23.5 108Z" fill="#999999"/>
<ellipse cx="34.0941" cy="60.0896" rx="4.5" ry="12.5" transform="rotate(-29.6468 34.0941 60.0896)" fill="#C4C4C4"/>
<path fill-rule="evenodd" clip-rule="evenodd" d="M24 168C36.7025 168 47 151.435 47 131C47 110.565 36.7025 94 24 94C11.2975 94 1 110.565 1 131C1 151.435 11.2975 168 24 168ZM24.5 155C31.4036 155 37 144.255 37 131C37 117.745 31.4036 107 24.5 107C17.5964 107 12 117.745 12 131C12 144.255 17.5964 155 24.5 155Z" fill="#999999"/>
<ellipse cx="35.0941" cy="107.09" rx="4.5" ry="12.5" transform="rotate(-29.6468 35.0941 107.09)" fill="#C4C4C4"/>
<path fill-rule="evenodd" clip-rule="evenodd" d="M24 215C36.7025 215 47 198.435 47 178C47 157.565 36.7025 141 24 141C11.2975 141 1 157.565 1 178C1 198.435 11.2975 215 24 215ZM24.5 202C31.4036 202 37 191.255 37 178C37 164.745 31.4036 154 24.5 154C17.5964 154 12 164.745 12 178C12 191.255 17.5964 202 24.5 202Z" fill="#999999"/>
<ellipse cx="35.0941" cy="154.09" rx="4.5" ry="12.5" transform="rotate(-29.6468 35.0941 154.09)" fill="#C4C4C4"/>
<path fill-rule="evenodd" clip-rule="evenodd" d="M23 262C35.7025 262 46 245.435 46 225C46 204.565 35.7025 188 23 188C10.2975 188 0 204.565 0 225C0 245.435 10.2975 262 23 262ZM23.5 249C30.4036 249 36 238.255 36 225C36 211.745 30.4036 201 23.5 201C16.5964 201 11 211.745 11 225C11 238.255 16.5964 249 23.5 249Z" fill="#999999"/>
<ellipse cx="34.0941" cy="201.09" rx="4.5" ry="12.5" transform="rotate(-29.6468 34.0941 201.09)" fill="#C4C4C4"/>
<path fill-rule="evenodd" clip-rule="evenodd" d="M23 309C35.7025 309 46 292.435 46 272C46 251.565 35.7025 235 23 235C10.2975 235 0 251.565 0 272C0 292.435 10.2975 309 23 309ZM23.5 296C30.4036 296 36 285.255 36 272C36 258.745 30.4036 248 23.5 248C16.5964 248 11 258.745 11 272C11 285.255 16.5964 296 23.5 296Z" fill="#999999"/>
<ellipse cx="34.0941" cy="248.09" rx="4.5" ry="12.5" transform="rotate(-29.6468 34.0941 248.09)" fill="#C4C4C4"/>
<path fill-rule="evenodd" clip-rule="evenodd" d="M24 356C36.7025 356 47 339.435 47 319C47 298.565 36.7025 282 24 282C11.2975 282 1 298.565 1 319C1 339.435 11.2975 356 24 356ZM24.5 343C31.4036 343 37 332.255 37 319C37 305.745 31.4036 295 24.5 295C17.5964 295 12 305.745 12 319C12 332.255 17.5964 343 24.5 343Z" fill="#999999"/>
<ellipse cx="35.0941" cy="295.09" rx="4.5" ry="12.5" transform="rotate(-29.6468 35.0941 295.09)" fill="#C4C4C4"/>
<path fill-rule="evenodd" clip-rule="evenodd" d="M24 403C36.7025 403 47 386.435 47 366C47 345.565 36.7025 329 24 329C11.2975 329 1 345.565 1 366C1 386.435 11.2975 403 24 403ZM24.5 390C31.4036 390 37 379.255 37 366C37 352.745 31.4036 342 24.5 342C17.5964 342 12 352.745 12 366C12 379.255 17.5964 390 24.5 390Z" fill="#999999"/>
<ellipse cx="35.0941" cy="342.09" rx="4.5" ry="12.5" transform="rotate(-29.6468 35.0941 342.09)" fill="#C4C4C4"/>
</svg>
