<svg width="682" height="764" viewBox="0 0 682 764" fill="none" xmlns="http://www.w3.org/2000/svg">
<g clip-path="url(#clip0_215_92)">
<g filter="url(#filter0_d_215_92)">
<circle cx="392.5" cy="457.5" r="189" stroke="url(#paint0_linear_215_92)" stroke-width="99" shape-rendering="crispEdges"/>
</g>
<path d="M471 282.5C461.8 275.3 445.167 268.167 438 265.5C436.5 267.5 436 269 436.5 271.5C447.609 275.203 462.333 282.833 468 287.5L464.5 293H480.5L476 278L471 282.5Z" fill="#9B9B9B" stroke="black" stroke-width="3"/>
<path d="M579.013 426.504C577.558 414.913 570.781 398.131 567.574 391.189C565.1 391.551 563.689 392.263 562.282 394.39C567.556 404.845 572.628 420.634 573.361 427.938L567.002 429.375L578.356 440.649L585.732 426.834L579.013 426.504Z" fill="#9B9B9B" stroke="black" stroke-width="3"/>
<path d="M267.854 299.438C258.078 305.835 245.976 319.291 241.147 325.22C242.558 327.284 243.818 328.239 246.346 328.57C253.424 319.241 265.383 307.752 271.624 303.886L275.707 308.969L280.851 293.818L265.2 293.257L267.854 299.438Z" fill="#9B9B9B" stroke="black" stroke-width="3"/>
<path d="M557.237 568.042C564.239 558.691 571.016 541.909 573.53 534.687C571.498 533.23 569.988 532.762 567.499 533.315C564.034 544.501 556.719 559.384 552.174 565.149L546.601 561.767L546.942 577.764L561.843 572.945L557.237 568.042Z" fill="#9B9B9B" stroke="black" stroke-width="3"/>
<path d="M245.096 569.639C250.108 580.191 261.801 594.006 267.02 599.594C269.256 598.475 270.373 597.357 271.043 594.897C262.76 586.62 252.998 573.213 250.014 566.506L255.603 563.15L241.29 556L238.612 571.43L245.096 569.639Z" fill="#9B9B9B" stroke="black" stroke-width="3"/>
<path d="M184.514 290.525C191.727 299.714 198.885 316.337 201.562 323.5C199.564 325.003 198.065 325.505 195.564 325.009C191.845 313.905 184.193 299.192 179.518 293.532L174.023 297.04L174 281.04L189.007 285.518L184.514 290.525Z" fill="#9B9B9B" stroke="black" stroke-width="3"/>
<circle cx="364.5" cy="290.5" r="9" fill="url(#paint1_linear_215_92)" stroke="black"/>
<circle cx="319.5" cy="304.5" r="9" fill="url(#paint2_linear_215_92)" stroke="black"/>
<circle cx="343.5" cy="299.5" r="9" fill="url(#paint3_linear_215_92)" stroke="black"/>
<circle cx="388.5" cy="294.5" r="9" fill="url(#paint4_linear_215_92)" stroke="black"/>
<circle cx="402.5" cy="259.5" r="9" fill="url(#paint5_linear_215_92)" stroke="black"/>
<circle cx="387.5" cy="274.5" r="9" fill="url(#paint6_linear_215_92)" stroke="black"/>
<circle cx="329.5" cy="261.5" r="9" fill="url(#paint7_linear_215_92)" stroke="black"/>
<circle cx="352.5" cy="250.5" r="9" fill="url(#paint8_linear_215_92)" stroke="black"/>
<circle cx="337.5" cy="283.5" r="9" fill="url(#paint9_linear_215_92)" stroke="black"/>
<circle cx="377.5" cy="265.5" r="9" fill="url(#paint10_linear_215_92)" stroke="black"/>
<circle cx="348.5" cy="274.5" r="9" fill="url(#paint11_linear_215_92)" stroke="black"/>
<path d="M534.657 316.776C528.647 311.666 517.612 314.753 513.931 316.21C521.759 319.859 539.224 329.742 546.458 340.079C548.632 336.736 547.092 333.696 556.368 335.651C552.561 332.496 541.448 322.552 534.657 316.776Z" fill="#DDDDDD" stroke="black" stroke-width="2"/>
<path d="M568.83 383.167C565.05 369.157 569.803 365.453 580.74 363.051C573.168 355.953 562.813 356.377 558.582 357.477C549.955 343.712 544.203 334.536 526.906 323.288C501.868 307.007 485.761 309.67 480.837 313.037C481.741 322.459 492.327 336.817 512.094 349.671C527.908 359.955 546.435 362.942 554.235 364.163C554.872 373.275 564.127 380.789 568.83 383.167Z" fill="#DDDDDD" stroke="black" stroke-width="2"/>
<path d="M521.262 353.594C519.507 354.492 517.644 357.357 516.604 360.758C516.604 360.758 512.067 360.526 508.057 355.88C504.047 351.234 500.021 344.81 502.008 341.754" stroke="black" stroke-width="2"/>
<ellipse rx="2.92443" ry="2.92043" transform="matrix(-0.838341 -0.545147 -0.545147 0.838341 500.14 322.957)" fill="black"/>
<path d="M559.839 455.55C547.091 454.109 534.57 464.415 530.764 468.296L596.451 472.158C596.531 467.287 591.756 465.121 606.253 461.183C598.249 460.356 574.246 457.178 559.839 455.55Z" fill="#CCCCCC" stroke="black" stroke-width="2"/>
<path d="M573.332 512.841C571.798 508.64 571.866 504.465 573.504 502.404L536.618 502.495C536.545 506.948 547.703 511.028 557.288 513.273C566.874 515.519 573.332 512.841 573.332 512.841Z" fill="#C4C4C4" stroke="black" stroke-width="2"/>
<path d="M664.911 502.512C647.469 490.394 650.79 483.489 663.776 473.959C647.139 471.459 633.231 478.561 628.356 482.425C604.445 473.681 588.504 467.852 554.836 467.299C506.097 466.499 486.21 479.628 482.359 486.293C491.83 495.496 518.959 503.597 557.437 504.228C588.219 504.733 616.375 495.916 628.196 492.166C637.028 501.219 656.349 503.068 664.911 502.512Z" fill="#CCCCCC" stroke="black" stroke-width="2"/>
<ellipse rx="4.0994" ry="3.66775" transform="matrix(-0.999865 -0.016408 -0.016408 0.999865 516.961 484.266)" fill="black"/>
<path d="M377.166 565.828C360.055 564.63 345.045 585.896 340.597 593.794L428.219 593.142C427.579 583.807 420.92 580.244 439.524 570.929C428.792 570.325 396.503 567.181 377.166 565.828Z" fill="#CCCCCC" stroke="black" stroke-width="2"/>
<path d="M403.822 673.868C401.145 666.013 400.596 658.011 402.45 653.865L353.593 658.556C354.179 667.091 369.588 673.537 382.632 676.662C395.676 679.787 403.822 673.868 403.822 673.868Z" fill="#CCCCCC" stroke="black" stroke-width="2"/>
<path d="M523.574 642.875C498.609 621.81 501.95 608.182 517.695 588.344C495.269 585.595 477.93 600.898 472.064 608.893C439.043 595.08 417.029 585.871 372.337 588.937C307.64 593.376 283.303 620.95 279.222 634.182C293.18 650.642 330.366 662.83 381.443 659.326C422.304 656.522 458.257 636.191 473.345 627.563C486.434 643.815 512.316 644.987 523.574 642.875Z" fill="#CCCCCC" stroke="black" stroke-width="2"/>
<ellipse rx="7.31592" ry="6.84617" transform="matrix(-0.997655 0.0684459 0.0684459 0.997655 326.6 625.735)" fill="black"/>
<path d="M207.392 451.946C224.393 449.671 240.716 469.948 245.653 477.549L158.164 482.427C158.214 473.07 164.635 469.094 145.48 460.971C156.153 459.692 188.179 454.516 207.392 451.946Z" fill="#AAAAAA" stroke="black" stroke-width="2"/>
<path d="M187.606 561.453C189.782 553.444 189.825 545.424 187.714 541.402L236.769 543.002C236.723 551.557 221.751 558.962 208.931 562.904C196.11 566.846 187.606 561.453 187.606 561.453Z" fill="#AAAAAA" stroke="black" stroke-width="2"/>
<path d="M66.1369 538.078C89.7234 515.479 85.5287 502.089 68.5636 483.284C90.7714 479.126 109.041 493.304 115.4 500.913C147.484 485.044 168.873 474.464 213.669 474.704C278.517 475.051 304.546 501.035 309.454 513.983C296.562 531.291 260.219 545.801 209.023 545.527C168.066 545.307 130.903 527.285 115.3 519.627C103.263 536.673 77.5066 539.475 66.1369 538.078Z" fill="url(#paint12_radial_215_92)" stroke="black" stroke-width="2"/>
<ellipse cx="261.638" cy="508.542" rx="7.31592" ry="6.84617" transform="rotate(0.306883 261.638 508.542)" fill="black"/>
<path d="M217.499 341.793C234.632 342.626 248.017 369.238 251.5 377.606C242.667 370.606 222.4 356.106 212 354.106C201.6 352.106 175.333 358.273 163.5 361.606C165.239 352.412 172.349 350.937 154.975 339.488C165.704 340.157 198.138 340.851 217.499 341.793Z" fill="#AAAAAA" stroke="black" stroke-width="2"/>
<path d="M168.999 452.597C172.586 445.113 174.077 437.232 172.726 432.895L220.686 443.328C219.096 451.734 203.033 456.314 189.711 457.875C176.39 459.437 168.999 452.597 168.999 452.597Z" fill="#AAAAAA" stroke="black" stroke-width="2"/>
<path d="M53.7495 407.668C81.0296 389.701 79.3221 375.774 66.0324 354.214C88.6261 354.134 104.035 371.379 108.915 380.011C143.337 370.198 172.5 354.106 212.5 354.106C252.5 371.511 294.928 414.292 297.417 427.914C281.611 442.61 243.245 450.317 192.941 440.801C152.697 433.188 119.399 408.75 105.437 398.399C90.5185 412.991 64.6798 411.096 53.7495 407.668Z" fill="url(#paint13_radial_215_92)"/>
<path d="M53.7495 407.668C81.0296 389.701 79.3221 375.774 66.0324 354.214C88.6261 354.134 104.035 371.379 108.915 380.011C143.337 370.198 172.5 354.106 212.5 354.106C252.5 371.511 294.928 414.292 297.417 427.914C281.611 442.61 243.245 450.317 192.941 440.801C152.697 433.188 119.399 408.75 105.437 398.399C90.5185 412.991 64.6798 411.096 53.7495 407.668Z" fill="url(#paint14_linear_215_92)" fill-opacity="0.2"/>
<path d="M53.7495 407.668C81.0296 389.701 79.3221 375.774 66.0324 354.214C88.6261 354.134 104.035 371.379 108.915 380.011C143.337 370.198 172.5 354.106 212.5 354.106C252.5 371.511 294.928 414.292 297.417 427.914C281.611 442.61 243.245 450.317 192.941 440.801C152.697 433.188 119.399 408.75 105.437 398.399C90.5185 412.991 64.6798 411.096 53.7495 407.668Z" stroke="black" stroke-width="2"/>
<ellipse cx="251.368" cy="413.927" rx="7.31592" ry="6.84617" transform="rotate(10.712 251.368 413.927)" fill="black"/>
<path d="M118.533 164.682C101.535 162.376 83.5193 186.099 78.5682 193.691C88.5304 188.42 111.103 177.861 121.693 177.792C132.283 177.723 156.984 188.579 168.01 194.015C167.978 184.658 161.257 181.911 180.428 173.824C169.757 172.525 137.741 167.289 118.533 164.682Z" fill="#888888"/>
<path d="M118.533 164.682C101.535 162.376 83.5193 186.099 78.5682 193.691C88.5304 188.42 111.103 177.861 121.693 177.792C132.283 177.723 156.984 188.579 168.01 194.015C167.978 184.658 161.257 181.911 180.428 173.824C169.757 172.525 137.741 167.289 118.533 164.682Z" fill="#743F00" fill-opacity="0.2"/>
<path d="M118.533 164.682C101.535 162.376 83.5193 186.099 78.5682 193.691C88.5304 188.42 111.103 177.861 121.693 177.792C132.283 177.723 156.984 188.579 168.01 194.015C167.978 184.658 161.257 181.911 180.428 173.824C169.757 172.525 137.741 167.289 118.533 164.682Z" stroke="black" stroke-width="2"/>
<path d="M146.002 282.475C143.841 274.462 143.813 266.442 145.932 262.425L96.8735 263.932C96.9032 272.487 111.862 279.921 124.675 283.886C137.488 287.852 146.002 282.475 146.002 282.475Z" fill="#888888" stroke="black" stroke-width="2"/>
<path d="M267.515 259.329C243.971 236.686 248.19 223.304 265.191 204.531C242.991 200.33 224.694 214.474 218.321 222.071C186.268 206.142 160.53 184.999 121.201 177.701C78.6967 187.516 29.1756 221.838 24.2431 234.777C37.1026 252.109 73.4179 266.687 124.614 266.509C165.572 266.367 202.769 248.414 218.386 240.785C230.392 257.854 256.142 260.705 267.515 259.329Z" fill="url(#paint15_radial_215_92)"/>
<path d="M267.515 259.329C243.971 236.686 248.19 223.304 265.191 204.531C242.991 200.33 224.694 214.474 218.321 222.071C186.268 206.142 160.53 184.999 121.201 177.701C78.6967 187.516 29.1756 221.838 24.2431 234.777C37.1026 252.109 73.4179 266.687 124.614 266.509C165.572 266.367 202.769 248.414 218.386 240.785C230.392 257.854 256.142 260.705 267.515 259.329Z" fill="url(#paint16_linear_215_92)" fill-opacity="0.2"/>
<path d="M267.515 259.329C243.971 236.686 248.19 223.304 265.191 204.531C242.991 200.33 224.694 214.474 218.321 222.071C186.268 206.142 160.53 184.999 121.201 177.701C78.6967 187.516 29.1756 221.838 24.2431 234.777C37.1026 252.109 73.4179 266.687 124.614 266.509C165.572 266.367 202.769 248.414 218.386 240.785C230.392 257.854 256.142 260.705 267.515 259.329Z" stroke="black" stroke-width="2"/>
<path d="M73 224L57 241" stroke="black" stroke-width="4"/>
<path d="M546.359 357.146C544.79 360.995 540.546 363.44 534.759 364.164C528.99 364.885 521.803 363.873 514.58 360.928C507.356 357.984 501.51 353.682 497.89 349.133C494.259 344.569 492.934 339.854 494.503 336.005C496.073 332.155 500.316 329.711 506.103 328.987C511.872 328.265 519.059 329.278 526.283 332.222C533.506 335.167 539.352 339.469 542.972 344.018C546.604 348.582 547.928 353.297 546.359 357.146Z" fill="url(#paint17_linear_215_92)" stroke="black"/>
<path d="M57 224L72.5 240.5" stroke="black" stroke-width="4"/>
<circle cx="246" cy="212" r="2" fill="#333333"/>
<circle cx="252" cy="210" r="2" fill="#333333"/>
<circle cx="247" cy="220" r="2" fill="#333333"/>
<circle cx="254" cy="255" r="2" fill="#333333"/>
<circle cx="227" cy="226" r="2" fill="#333333"/>
<circle cx="246" cy="236" r="2" fill="#333333"/>
<circle cx="236" cy="229" r="2" fill="#333333"/>
<circle cx="245" cy="227" r="2" fill="#333333"/>
<circle cx="248" cy="246" r="2" fill="#333333"/>
<circle cx="229" cy="234" r="2" fill="#333333"/>
<circle cx="238" cy="237" r="2" fill="#333333"/>
<circle cx="242" cy="244" r="2" fill="#333333"/>
<circle cx="232" cy="243" r="2" fill="#333333"/>
<circle cx="244" cy="251" r="2" fill="#333333"/>
<circle cx="240" cy="214" r="2" fill="#333333"/>
<circle cx="232" cy="218" r="2" fill="#333333"/>
<circle cx="240" cy="222" r="2" fill="#333333"/>
<circle cx="498.304" cy="599.03" r="2" transform="rotate(-6.03695 498.304 599.03)" fill="#666666"/>
<circle cx="504.061" cy="596.41" r="2" transform="rotate(-6.03695 504.061 596.41)" fill="#666666"/>
<circle cx="500.14" cy="606.88" r="2" transform="rotate(-6.03695 500.14 606.88)" fill="#666666"/>
<circle cx="510.782" cy="640.95" r="2" transform="rotate(-6.03695 510.782 640.95)" fill="#666666"/>
<circle cx="480.882" cy="614.95" r="2" transform="rotate(-6.03695 480.882 614.95)" fill="#666666"/>
<circle cx="500.828" cy="622.896" r="2" transform="rotate(-6.03695 500.828 622.896)" fill="#666666"/>
<circle cx="490.148" cy="616.987" r="2" transform="rotate(-6.03695 490.148 616.987)" fill="#666666"/>
<circle cx="498.887" cy="614.052" r="2" transform="rotate(-6.03695 498.887 614.052)" fill="#666666"/>
<circle cx="503.869" cy="632.631" r="2" transform="rotate(-6.03695 503.869 632.631)" fill="#666666"/>
<circle cx="483.712" cy="622.695" r="2" transform="rotate(-6.03695 483.712 622.695)" fill="#666666"/>
<circle cx="492.978" cy="624.732" r="2" transform="rotate(-6.03695 492.978 624.732)" fill="#666666"/>
<circle cx="497.692" cy="631.273" r="2" transform="rotate(-6.03695 497.692 631.273)" fill="#666666"/>
<circle cx="487.642" cy="631.33" r="2" transform="rotate(-6.03695 487.642 631.33)" fill="#666666"/>
<circle cx="500.417" cy="638.023" r="2" transform="rotate(-6.03695 500.417 638.023)" fill="#666666"/>
<circle cx="492.548" cy="601.649" r="2" transform="rotate(-6.03695 492.548 601.649)" fill="#666666"/>
<circle cx="485.013" cy="606.469" r="2" transform="rotate(-6.03695 485.013 606.469)" fill="#666666"/>
<circle cx="493.389" cy="609.605" r="2" transform="rotate(-6.03695 493.389 609.605)" fill="#666666"/>
<circle r="2" transform="matrix(-0.987429 -0.15806 -0.15806 0.987429 91.9872 481.53)" fill="#333333"/>
<circle r="2" transform="matrix(-0.987429 -0.15806 -0.15806 0.987429 86.3788 478.607)" fill="#333333"/>
<circle r="2" transform="matrix(-0.987429 -0.15806 -0.15806 0.987429 89.7353 489.272)" fill="#333333"/>
<circle r="2" transform="matrix(-0.987429 -0.15806 -0.15806 0.987429 77.2912 522.725)" fill="#333333"/>
<circle r="2" transform="matrix(-0.987429 -0.15806 -0.15806 0.987429 108.535 498.357)" fill="#333333"/>
<circle r="2" transform="matrix(-0.987429 -0.15806 -0.15806 0.987429 88.1938 505.229)" fill="#333333"/>
<circle r="2" transform="matrix(-0.987429 -0.15806 -0.15806 0.987429 99.1745 499.897)" fill="#333333"/>
<circle r="2" transform="matrix(-0.987429 -0.15806 -0.15806 0.987429 90.6037 496.5)" fill="#333333"/>
<circle r="2" transform="matrix(-0.987429 -0.15806 -0.15806 0.987429 84.6383 514.787)" fill="#333333"/>
<circle r="2" transform="matrix(-0.987429 -0.15806 -0.15806 0.987429 105.296 505.941)" fill="#333333"/>
<circle r="2" transform="matrix(-0.987429 -0.15806 -0.15806 0.987429 95.9352 507.481)" fill="#333333"/>
<circle r="2" transform="matrix(-0.987429 -0.15806 -0.15806 0.987429 90.879 513.76)" fill="#333333"/>
<circle r="2" transform="matrix(-0.987429 -0.15806 -0.15806 0.987429 100.911 514.354)" fill="#333333"/>
<circle r="2" transform="matrix(-0.987429 -0.15806 -0.15806 0.987429 87.7977 520.356)" fill="#333333"/>
<circle r="2" transform="matrix(-0.987429 -0.15806 -0.15806 0.987429 97.5957 484.454)" fill="#333333"/>
<circle r="2" transform="matrix(-0.987429 -0.15806 -0.15806 0.987429 104.863 489.668)" fill="#333333"/>
<circle r="2" transform="matrix(-0.987429 -0.15806 -0.15806 0.987429 96.3312 492.353)" fill="#333333"/>
<circle r="2" transform="matrix(-0.954146 -0.299343 -0.299343 0.954146 83.0116 370.81)" fill="#333333"/>
<circle r="2" transform="matrix(-0.954146 -0.299343 -0.299343 0.954146 77.8855 367.106)" fill="#333333"/>
<circle r="2" transform="matrix(-0.954146 -0.299343 -0.299343 0.954146 79.6628 378.144)" fill="#333333"/>
<circle r="2" transform="matrix(-0.954146 -0.299343 -0.299343 0.954146 62.5068 409.443)" fill="#333333"/>
<circle r="2" transform="matrix(-0.954146 -0.299343 -0.299343 0.954146 96.9496 389.856)" fill="#333333"/>
<circle r="2" transform="matrix(-0.954146 -0.299343 -0.299343 0.954146 75.8274 393.71)" fill="#333333"/>
<circle r="2" transform="matrix(-0.954146 -0.299343 -0.299343 0.954146 87.4643 390.024)" fill="#333333"/>
<circle r="2" transform="matrix(-0.954146 -0.299343 -0.299343 0.954146 79.4757 385.421)" fill="#333333"/>
<circle r="2" transform="matrix(-0.954146 -0.299343 -0.299343 0.954146 70.9257 402.652)" fill="#333333"/>
<circle r="2" transform="matrix(-0.954146 -0.299343 -0.299343 0.954146 92.6466 396.89)" fill="#333333"/>
<circle r="2" transform="matrix(-0.954146 -0.299343 -0.299343 0.954146 83.1612 397.058)" fill="#333333"/>
<circle r="2" transform="matrix(-0.954146 -0.299343 -0.299343 0.954146 77.2492 402.54)" fill="#333333"/>
<circle r="2" transform="matrix(-0.954146 -0.299343 -0.299343 0.954146 87.0901 404.579)" fill="#333333"/>
<circle r="2" transform="matrix(-0.954146 -0.299343 -0.299343 0.954146 73.2456 408.62)" fill="#333333"/>
<circle r="2" transform="matrix(-0.954146 -0.299343 -0.299343 0.954146 88.1379 374.514)" fill="#333333"/>
<circle r="2" transform="matrix(-0.954146 -0.299343 -0.299343 0.954146 94.5737 380.726)" fill="#333333"/>
<circle r="2" transform="matrix(-0.954146 -0.299343 -0.299343 0.954146 85.7431 382.147)" fill="#333333"/>
<circle cx="647.714" cy="478.041" r="1.02041" fill="#888888"/>
<circle cx="650.776" cy="477.02" r="1.02041" fill="#888888"/>
<circle cx="648.225" cy="482.122" r="1.02041" fill="#888888"/>
<circle cx="651.796" cy="499.98" r="1.02041" fill="#888888"/>
<circle cx="638.02" cy="485.184" r="1.02041" fill="#888888"/>
<circle cx="647.714" cy="490.286" r="1.02041" fill="#888888"/>
<circle cx="642.612" cy="486.714" r="1.02041" fill="#888888"/>
<circle cx="647.204" cy="485.694" r="1.02041" fill="#888888"/>
<circle cx="648.735" cy="495.388" r="1.02041" fill="#888888"/>
<circle cx="639.041" cy="489.265" r="1.02041" fill="#888888"/>
<circle cx="643.633" cy="490.796" r="1.02041" fill="#888888"/>
<circle cx="645.673" cy="494.367" r="1.02041" fill="#888888"/>
<circle cx="640.571" cy="493.857" r="1.02041" fill="#888888"/>
<circle cx="646.694" cy="497.939" r="1.02041" fill="#888888"/>
<circle cx="644.653" cy="479.061" r="1.02041" fill="#888888"/>
<circle cx="640.571" cy="481.102" r="1.02041" fill="#888888"/>
<circle cx="644.653" cy="483.143" r="1.02041" fill="#888888"/>
<path d="M124.296 103C103.296 78.5 107.129 68.3333 109.796 61C86.7958 86.5 122.255 99.7916 119.796 114C115.296 140 115.296 147 119.796 152.5C119.296 124 133.296 115 124.296 103Z" fill="#2E780C"/>
<path d="M166.408 107.147C151.961 78.2935 158.14 69.3566 162.503 62.8865C134.015 82.0628 165.204 103.54 159.38 116.731C148.722 140.87 147.028 147.661 150.063 154.087C156.475 126.313 172.237 120.968 166.408 107.147Z" fill="#2E780C"/>
<path d="M142.87 99.066C123.687 65.9857 128.101 52.8473 131.188 43.3658C106.915 75.6913 141.057 94.7672 137.747 113.265C131.688 147.113 131.252 156.283 135.347 163.699C136.63 126.341 150.999 115.208 142.87 99.066Z" fill="#2E780C"/>
</g>
<defs>
<filter id="filter0_d_215_92" x="121" y="186" width="543" height="543" filterUnits="userSpaceOnUse" color-interpolation-filters="sRGB">
<feFlood flood-opacity="0" result="BackgroundImageFix"/>
<feColorMatrix in="SourceAlpha" type="matrix" values="0 0 0 0 0 0 0 0 0 0 0 0 0 0 0 0 0 0 127 0" result="hardAlpha"/>
<feMorphology radius="13" operator="dilate" in="SourceAlpha" result="effect1_dropShadow_215_92"/>
<feOffset/>
<feGaussianBlur stdDeviation="10"/>
<feComposite in2="hardAlpha" operator="out"/>
<feColorMatrix type="matrix" values="0 0 0 0 0 0 0 0 0 0 0 0 0 0 0 0 0 0 0.25 0"/>
<feBlend mode="normal" in2="BackgroundImageFix" result="effect1_dropShadow_215_92"/>
<feBlend mode="normal" in="SourceGraphic" in2="effect1_dropShadow_215_92" result="shape"/>
</filter>
<linearGradient id="paint0_linear_215_92" x1="392.5" y1="219" x2="392.5" y2="696" gradientUnits="userSpaceOnUse">
<stop offset="0.609375" stop-color="#5FD3F8"/>
<stop offset="0.864766" stop-color="#054B61"/>
</linearGradient>
<linearGradient id="paint1_linear_215_92" x1="364.5" y1="281" x2="368.063" y2="292.875" gradientUnits="userSpaceOnUse">
<stop stop-color="#F26E53"/>
<stop offset="1" stop-color="#FFCE55"/>
</linearGradient>
<linearGradient id="paint2_linear_215_92" x1="319.5" y1="295" x2="323.063" y2="306.875" gradientUnits="userSpaceOnUse">
<stop stop-color="#F26E53"/>
<stop offset="1" stop-color="#FFCE55"/>
</linearGradient>
<linearGradient id="paint3_linear_215_92" x1="343.5" y1="290" x2="347.063" y2="301.875" gradientUnits="userSpaceOnUse">
<stop stop-color="#F26E53"/>
<stop offset="1" stop-color="#FFCE55"/>
</linearGradient>
<linearGradient id="paint4_linear_215_92" x1="388.5" y1="285" x2="392.063" y2="296.875" gradientUnits="userSpaceOnUse">
<stop stop-color="#F26E53"/>
<stop offset="1" stop-color="#FFCE55"/>
</linearGradient>
<linearGradient id="paint5_linear_215_92" x1="402.5" y1="250" x2="406.063" y2="261.875" gradientUnits="userSpaceOnUse">
<stop stop-color="#F26E53"/>
<stop offset="1" stop-color="#FFCE55"/>
</linearGradient>
<linearGradient id="paint6_linear_215_92" x1="387.5" y1="265" x2="391.063" y2="276.875" gradientUnits="userSpaceOnUse">
<stop stop-color="#F26E53"/>
<stop offset="1" stop-color="#FFCE55"/>
</linearGradient>
<linearGradient id="paint7_linear_215_92" x1="329.5" y1="252" x2="333.063" y2="263.875" gradientUnits="userSpaceOnUse">
<stop stop-color="#F26E53"/>
<stop offset="1" stop-color="#FFCE55"/>
</linearGradient>
<linearGradient id="paint8_linear_215_92" x1="352.5" y1="241" x2="356.063" y2="252.875" gradientUnits="userSpaceOnUse">
<stop stop-color="#F26E53"/>
<stop offset="1" stop-color="#FFCE55"/>
</linearGradient>
<linearGradient id="paint9_linear_215_92" x1="337.5" y1="274" x2="341.063" y2="285.875" gradientUnits="userSpaceOnUse">
<stop stop-color="#F26E53"/>
<stop offset="1" stop-color="#FFCE55"/>
</linearGradient>
<linearGradient id="paint10_linear_215_92" x1="377.5" y1="256" x2="381.063" y2="267.875" gradientUnits="userSpaceOnUse">
<stop stop-color="#F26E53"/>
<stop offset="1" stop-color="#FFCE55"/>
</linearGradient>
<linearGradient id="paint11_linear_215_92" x1="348.5" y1="265" x2="352.063" y2="276.875" gradientUnits="userSpaceOnUse">
<stop stop-color="#F26E53"/>
<stop offset="1" stop-color="#FFCE55"/>
</linearGradient>
<radialGradient id="paint12_radial_215_92" cx="0" cy="0" r="1" gradientUnits="userSpaceOnUse" gradientTransform="translate(187.881 509.99) rotate(90.3069) scale(35.4233 121.592)">
<stop offset="0.151042" stop-color="#FBADD4"/>
<stop offset="0.760417" stop-color="#AAAAAA"/>
</radialGradient>
<radialGradient id="paint13_radial_215_92" cx="0" cy="0" r="1" gradientUnits="userSpaceOnUse" gradientTransform="translate(180.235 393.2) rotate(100.712) scale(44.4097 121.592)">
<stop offset="0.166667" stop-color="#FBADD4"/>
<stop offset="0.661458" stop-color="#AAAAAA"/>
</radialGradient>
<linearGradient id="paint14_linear_215_92" x1="188.49" y1="349.564" x2="171.981" y2="436.836" gradientUnits="userSpaceOnUse">
<stop offset="0.4375" stop-color="#743F00"/>
<stop offset="1" stop-color="#AAAAAA"/>
</linearGradient>
<radialGradient id="paint15_radial_215_92" cx="0" cy="0" r="1" gradientUnits="userSpaceOnUse" gradientTransform="translate(145.792 222.026) rotate(89.8008) scale(44.4097 121.592)">
<stop offset="0.166667" stop-color="#FBADD4"/>
<stop offset="0.661458" stop-color="#AAAAAA"/>
</radialGradient>
<linearGradient id="paint16_linear_215_92" x1="145.637" y1="177.616" x2="145.946" y2="266.435" gradientUnits="userSpaceOnUse">
<stop offset="0.442708" stop-color="#743F00"/>
<stop offset="1" stop-color="#AAAAAA"/>
</linearGradient>
<linearGradient id="paint17_linear_215_92" x1="526.472" y1="331.759" x2="521.775" y2="352.737" gradientUnits="userSpaceOnUse">
<stop stop-color="#F26E53"/>
<stop offset="1" stop-color="#FFCE55"/>
</linearGradient>
<clipPath id="clip0_215_92">
<rect width="682" height="764" fill="white"/>
</clipPath>
</defs>
</svg>
