<svg width="2034" height="543" viewBox="0 0 2034 543" fill="none" xmlns="http://www.w3.org/2000/svg">
<path d="M1344.5 242.5L1189 164.903L1261.5 357.5L1280.5 362L1333 477.5L1386.5 542.078L1423.5 542.103L1363.5 357.5L1374 336.5L1344.5 242.5Z" fill="#0E5167"/>
<path d="M1344.5 242.5L1189 164.903L1261.5 357.5L1280.5 362L1333 477.5L1386.5 542.078L1423.5 542.103L1363.5 357.5L1374 336.5L1344.5 242.5Z" fill="black" fill-opacity="0.2"/>
<path d="M1549 332L1508 326L1542 463.5L1553.5 458L1542 382L1553.5 370L1549 332Z" fill="#0E5167"/>
<path d="M1549 332L1508 326L1542 463.5L1553.5 458L1542 382L1553.5 370L1549 332Z" fill="black" fill-opacity="0.2"/>
<path d="M588 152L499.5 239H483L463 260L362 295L115.5 542H208.5L307 425.5L409.5 332.5L436.5 328L466 295L603.5 289.755C593.849 281.492 584.883 273.977 577 267.5L559.5 216L614.5 230C586.5 200.4 585.167 165.667 588 152Z" fill="#0E5167" fill-opacity="0.4"/>
<path d="M156 384.5C117.2 442.9 35.8333 513.833 0 542H115.5L362 295L463 260L483 239H499.5L588 152L646 197.5L685 209.5C714.6 237.9 820.667 370 870 432.5L903 453.5L961.5 542H995.5C974.181 523.083 953.944 494.609 939.229 473.905C929.44 460.132 922.095 449.798 918.5 448C911.3 444.4 827.5 324.5 786.5 265L702 177.5C664.8 169.9 593.5 69 562.5 19.5L527.75 57.5L494.5 95.5L455.5 116L421 154.5L382 158.5L190.5 384.5H156Z" fill="#0E5167"/>
<path d="M156 384.5C117.2 442.9 35.8333 513.833 0 542H115.5L362 295L463 260L483 239H499.5L588 152L646 197.5L685 209.5C714.6 237.9 820.667 370 870 432.5L903 453.5L961.5 542H995.5C974.181 523.083 953.944 494.609 939.229 473.905C929.44 460.132 922.095 449.798 918.5 448C911.3 444.4 827.5 324.5 786.5 265L702 177.5C664.8 169.9 593.5 69 562.5 19.5L527.75 57.5L494.5 95.5L455.5 116L421 154.5L382 158.5L190.5 384.5H156Z" fill="black" fill-opacity="0.2"/>
<path d="M382 459.5L312 542H476L632.5 422L673 449L716 485.5L693.5 449C657.5 407.8 637.833 372.5 632.5 360L603.5 317L539 363.5L515.5 369.5L429.5 445.5L382 459.5Z" fill="#0E5167"/>
<path d="M382 459.5L312 542H476L632.5 422L673 449L716 485.5L693.5 449C657.5 407.8 637.833 372.5 632.5 360L603.5 317L539 363.5L515.5 369.5L429.5 445.5L382 459.5Z" fill="black" fill-opacity="0.2"/>
<path d="M754.5 159.5C773.833 180.167 813.4 222.2 817 225C821.5 228.5 906 337.5 927.5 352.5C949 367.5 831 221.5 839.5 219C846.3 217 800 171.167 776 148.5L740 85L714.1 109L754.5 159.5Z" fill="#0E5167"/>
<path d="M754.5 159.5C773.833 180.167 813.4 222.2 817 225C821.5 228.5 906 337.5 927.5 352.5C949 367.5 831 221.5 839.5 219C846.3 217 800 171.167 776 148.5L740 85L714.1 109L754.5 159.5Z" fill="black" fill-opacity="0.2"/>
<path d="M632.5 216C639.667 229.167 656.8 258.4 668 270C679.2 281.6 712.333 309.167 727.5 321.5C703.167 292.5 650.1 230.8 632.5 216Z" fill="#0E5167"/>
<path d="M632.5 216C639.667 229.167 656.8 258.4 668 270C679.2 281.6 712.333 309.167 727.5 321.5C703.167 292.5 650.1 230.8 632.5 216Z" fill="black" fill-opacity="0.2"/>
<path d="M749.429 354.855C766.138 382.151 804.869 437.523 837.5 458.5C877.627 484.296 764.402 375.909 749.429 354.855Z" fill="#0E5167"/>
<path d="M749.429 354.855C766.138 382.151 804.869 437.523 837.5 458.5C877.627 484.296 764.402 375.909 749.429 354.855Z" fill="black" fill-opacity="0.2"/>
<path d="M312 542L382 459.5L429.5 445.5L515.5 369.5L539 363.5L603.5 317C649.9 341.8 733.5 428 769.5 468C760.47 431.186 667.107 344.214 603.5 289.755L466 295L436.5 328L409.5 332.5L307 425.5L208.5 542H312Z" fill="#0E5167" fill-opacity="0.5"/>
<path fill-rule="evenodd" clip-rule="evenodd" d="M961.5 542L903 453.5L870 432.5C820.667 370 714.6 237.9 685 209.5L646 197.5L588 152C585.167 165.667 586.5 200.4 614.5 230L559.5 216L577 267.5C584.883 273.977 593.849 281.492 603.5 289.755C667.107 344.214 760.47 431.186 769.5 468C733.5 428 649.9 341.8 603.5 317L632.5 360C637.833 372.5 657.5 407.8 693.5 449L716 485.5L673 449L632.5 422L713 542H961.5ZM668 270C656.8 258.4 639.667 229.167 632.5 216C650.1 230.8 703.167 292.5 727.5 321.5C712.333 309.167 679.2 281.6 668 270ZM837.5 458.5C804.869 437.523 766.138 382.151 749.429 354.855C748.73 353.872 748.245 353.08 748 352.5C748.456 353.259 748.933 354.044 749.429 354.855C764.402 375.909 877.627 484.296 837.5 458.5Z" fill="url(#paint0_linear_31_183)" fill-opacity="0.3"/>
<path d="M587 11.5L562.5 19.5L582.5 35.5L613.5 48.5L690.5 137.5C658.667 96.1667 596.1 10.8 600.5 0L587 11.5Z" fill="#0E5167" fill-opacity="0.9"/>
<path d="M722.5 68L698.5 89.5L714.1 109L740 85L761 89.5L748.5 60.5L738.5 68H722.5Z" fill="#0E5167" fill-opacity="0.9"/>
<path d="M806 125L800 116C808.298 138.369 838.318 177.997 851 196C842.787 179.94 826.498 146.7 819 129L806 125Z" fill="#0E5167" fill-opacity="0.9"/>
<path d="M625.5 19.5L600.5 0C596.1 10.8 658.667 96.1667 690.5 137.5L613.5 48.5L582.5 35.5L562.5 19.5C593.5 69 664.8 169.9 702 177.5L786.5 265C827.5 324.5 911.3 444.4 918.5 448C922.095 449.798 929.44 460.132 939.229 473.905C953.944 494.609 974.181 523.083 995.5 542H1267.5C1258.23 536.549 1248.89 530.74 1239.5 524.625C1113.21 442.35 979.643 304.865 925.5 242.5H918.5C920 250 964.5 306 958 302.5C952.8 299.7 916.5 253.667 899 231L819 129C826.498 146.7 842.787 179.94 851 196C838.318 177.997 808.298 138.369 800 116L748.5 60.5L761 89.5L740 85L776 148.5C800 171.167 846.3 217 839.5 219C831 221.5 949 367.5 927.5 352.5C906 337.5 821.5 228.5 817 225C813.4 222.2 773.833 180.167 754.5 159.5L714.1 109L698.5 89.5L652 24L625.5 19.5Z" fill="#0E5167" fill-opacity="0.5"/>
<path d="M899 231L910 242.5H918.5H925.5C979.643 304.865 1113.21 442.35 1239.5 524.625L1218.5 458L1132 362L1091 116L947 219L899 231Z" fill="#0E5167" fill-opacity="0.8"/>
<path d="M899 231L910 242.5H918.5H925.5C979.643 304.865 1113.21 442.35 1239.5 524.625L1218.5 458L1132 362L1091 116L947 219L899 231Z" fill="black" fill-opacity="0.2"/>
<path d="M910 242.5L899 231C916.5 253.667 952.8 299.7 958 302.5C964.5 306 920 250 918.5 242.5H910Z" fill="#0E5167"/>
<path d="M910 242.5L899 231C916.5 253.667 952.8 299.7 958 302.5C964.5 306 920 250 918.5 242.5H910Z" fill="black" fill-opacity="0.2"/>
<path d="M1091 116L1132 362L1218.5 458L1239.5 524.625C1248.89 530.74 1258.23 536.549 1267.5 542L1386.5 542.078L1333 477.5L1280.5 362L1261.5 357.5L1189 164.903L1091 116Z" fill="#0E5167" fill-opacity="0.2"/>
<path d="M1386.5 242.5H1344.5L1374 336.5L1363.5 357.5L1423.5 542.103L1488.5 542.145L1419 256.656L1386.5 242.5Z" fill="#0E5167" fill-opacity="0.2"/>
<path d="M1419 256.656L1488.5 542.145L1499 542.152L1463.5 370L1479.5 402L1459 274.078L1419 256.656Z" fill="#0E5167" fill-opacity="0.6"/>
<path d="M1508 326L1499 291.5L1459 274.078L1479.5 402L1463.5 370L1499 542.152L2034 542.5L1549 332L1553.5 370L1542 382L1553.5 458L1542 463.5L1508 326Z" fill="#0E5167" fill-opacity="0.3"/>
<path d="M632.5 422L476 542H713L632.5 422Z" fill="#0E5167" fill-opacity="0.5"/>
<defs>
<linearGradient id="paint0_linear_31_183" x1="1017" y1="0" x2="1017" y2="542.5" gradientUnits="userSpaceOnUse">
<stop stop-color="#0E5167" stop-opacity="0"/>
<stop offset="0.666667" stop-color="#0E5167" stop-opacity="0.6"/>
</linearGradient>
</defs>
</svg>
