<svg width="593" height="502" viewBox="0 0 593 502" fill="none" xmlns="http://www.w3.org/2000/svg">
<path d="M95 64V457H518" stroke="white"/>
<rect x="176" y="413" width="53" height="44" fill="#F9F09A"/>
<path d="M46.0682 418.159C45.5909 418.152 45.1136 418.061 44.6364 417.886C44.1591 417.712 43.7235 417.419 43.3295 417.006C42.9356 416.589 42.6193 416.027 42.3807 415.318C42.142 414.606 42.0227 413.712 42.0227 412.636C42.0227 411.606 42.1193 410.693 42.3125 409.898C42.5057 409.098 42.786 408.426 43.1534 407.881C43.5208 407.331 43.964 406.915 44.483 406.631C45.0057 406.347 45.5947 406.205 46.25 406.205C46.9015 406.205 47.4811 406.335 47.9886 406.597C48.5 406.854 48.9167 407.214 49.2386 407.676C49.5606 408.138 49.7689 408.67 49.8636 409.273H48.4773C48.3485 408.75 48.0985 408.316 47.7273 407.972C47.3561 407.627 46.8636 407.455 46.25 407.455C45.3485 407.455 44.6383 407.847 44.1193 408.631C43.6042 409.415 43.3447 410.515 43.3409 411.932H43.4318C43.6439 411.61 43.8958 411.335 44.1875 411.108C44.483 410.877 44.8087 410.699 45.1648 410.574C45.5208 410.449 45.8977 410.386 46.2955 410.386C46.9621 410.386 47.572 410.553 48.125 410.886C48.678 411.216 49.1212 411.672 49.4545 412.256C49.7879 412.835 49.9545 413.5 49.9545 414.25C49.9545 414.97 49.7936 415.629 49.4716 416.227C49.1496 416.822 48.697 417.295 48.1136 417.648C47.5341 417.996 46.8523 418.167 46.0682 418.159ZM46.0682 416.909C46.5455 416.909 46.9735 416.79 47.3523 416.551C47.7348 416.312 48.036 415.992 48.2557 415.591C48.4792 415.189 48.5909 414.742 48.5909 414.25C48.5909 413.769 48.483 413.331 48.267 412.938C48.0549 412.54 47.7614 412.223 47.3864 411.989C47.0152 411.754 46.5909 411.636 46.1136 411.636C45.7538 411.636 45.4186 411.708 45.108 411.852C44.7973 411.992 44.5246 412.186 44.2898 412.432C44.0587 412.678 43.8769 412.96 43.7443 413.278C43.6117 413.593 43.5455 413.924 43.5455 414.273C43.5455 414.735 43.6534 415.167 43.8693 415.568C44.089 415.97 44.3883 416.294 44.767 416.54C45.1496 416.786 45.5833 416.909 46.0682 416.909ZM60.6207 418.159C59.8707 418.159 59.2022 418.03 58.6151 417.773C58.0317 417.515 57.5677 417.157 57.223 416.699C56.8821 416.237 56.6965 415.701 56.6662 415.091H58.098C58.1283 415.466 58.2571 415.79 58.4844 416.062C58.7116 416.331 59.009 416.54 59.3764 416.688C59.7438 416.835 60.151 416.909 60.598 416.909C61.098 416.909 61.5412 416.822 61.9276 416.648C62.3139 416.473 62.617 416.231 62.8366 415.92C63.0563 415.61 63.1662 415.25 63.1662 414.841C63.1662 414.413 63.0601 414.036 62.848 413.71C62.6359 413.381 62.3253 413.123 61.9162 412.938C61.5071 412.752 61.0071 412.659 60.4162 412.659H59.4844V411.409H60.4162C60.8783 411.409 61.2836 411.326 61.6321 411.159C61.9844 410.992 62.259 410.758 62.456 410.455C62.6567 410.152 62.7571 409.795 62.7571 409.386C62.7571 408.992 62.67 408.65 62.4957 408.358C62.3215 408.066 62.0753 407.839 61.7571 407.676C61.4427 407.513 61.0715 407.432 60.6435 407.432C60.242 407.432 59.8632 407.506 59.5071 407.653C59.1548 407.797 58.867 408.008 58.6435 408.284C58.42 408.557 58.2988 408.886 58.2798 409.273H56.9162C56.9389 408.663 57.1226 408.129 57.4673 407.67C57.812 407.208 58.2628 406.848 58.8196 406.591C59.3802 406.333 59.9957 406.205 60.6662 406.205C61.3859 406.205 62.0033 406.35 62.5185 406.642C63.0336 406.93 63.4295 407.311 63.706 407.784C63.9825 408.258 64.1207 408.769 64.1207 409.318C64.1207 409.973 63.9484 410.532 63.6037 410.994C63.2628 411.456 62.7988 411.777 62.2116 411.955V412.045C62.9465 412.167 63.5204 412.479 63.9332 412.983C64.3461 413.483 64.5526 414.102 64.5526 414.841C64.5526 415.473 64.3802 416.042 64.0355 416.545C63.6946 417.045 63.2287 417.439 62.6378 417.727C62.0469 418.015 61.3745 418.159 60.6207 418.159ZM70.581 406.205C71.0582 406.208 71.5355 406.299 72.0128 406.477C72.4901 406.655 72.9257 406.951 73.3196 407.364C73.7135 407.773 74.0298 408.331 74.2685 409.04C74.5071 409.748 74.6264 410.636 74.6264 411.705C74.6264 412.739 74.5279 413.657 74.331 414.46C74.1378 415.259 73.8575 415.934 73.4901 416.483C73.1264 417.032 72.6832 417.449 72.1605 417.733C71.6416 418.017 71.0545 418.159 70.3991 418.159C69.7476 418.159 69.1662 418.03 68.6548 417.773C68.1473 417.511 67.7306 417.15 67.4048 416.688C67.0829 416.222 66.8764 415.682 66.7855 415.068H68.1719C68.2969 415.602 68.545 416.044 68.9162 416.392C69.2912 416.737 69.7855 416.909 70.3991 416.909C71.2969 416.909 72.0052 416.517 72.5241 415.733C73.0469 414.949 73.3082 413.841 73.3082 412.409H73.2173C73.0052 412.727 72.7533 413.002 72.4616 413.233C72.17 413.464 71.8461 413.642 71.4901 413.767C71.134 413.892 70.7552 413.955 70.3537 413.955C69.687 413.955 69.0753 413.79 68.5185 413.46C67.9654 413.127 67.5223 412.67 67.1889 412.091C66.8594 411.508 66.6946 410.841 66.6946 410.091C66.6946 409.379 66.8537 408.727 67.1719 408.136C67.4938 407.542 67.9446 407.068 68.5241 406.716C69.1075 406.364 69.7931 406.193 70.581 406.205ZM70.581 407.455C70.1037 407.455 69.6738 407.574 69.2912 407.812C68.9124 408.047 68.6113 408.366 68.3878 408.767C68.1681 409.165 68.0582 409.606 68.0582 410.091C68.0582 410.576 68.1643 411.017 68.3764 411.415C68.5923 411.809 68.8859 412.123 69.2571 412.358C69.6321 412.589 70.0582 412.705 70.5355 412.705C70.8954 412.705 71.2306 412.634 71.5412 412.494C71.8518 412.35 72.1226 412.155 72.3537 411.909C72.5885 411.659 72.7723 411.377 72.9048 411.062C73.0374 410.744 73.1037 410.413 73.1037 410.068C73.1037 409.614 72.9938 409.187 72.7741 408.79C72.5582 408.392 72.259 408.07 71.8764 407.824C71.4976 407.578 71.0658 407.455 70.581 407.455ZM80.6562 418.159C79.8002 418.159 79.071 417.926 78.4688 417.46C77.8665 416.991 77.4063 416.311 77.0881 415.42C76.7699 414.527 76.6108 413.447 76.6108 412.182C76.6108 410.924 76.7699 409.85 77.0881 408.96C77.41 408.066 77.8722 407.384 78.4744 406.915C79.0805 406.441 79.8078 406.205 80.6562 406.205C81.5047 406.205 82.2301 406.441 82.8324 406.915C83.4384 407.384 83.9006 408.066 84.2188 408.96C84.5407 409.85 84.7017 410.924 84.7017 412.182C84.7017 413.447 84.5426 414.527 84.2244 415.42C83.9062 416.311 83.446 416.991 82.8438 417.46C82.2415 417.926 81.5123 418.159 80.6562 418.159ZM80.6562 416.909C81.5047 416.909 82.1638 416.5 82.6335 415.682C83.1032 414.864 83.3381 413.697 83.3381 412.182C83.3381 411.174 83.2301 410.316 83.0142 409.608C82.8021 408.9 82.4953 408.36 82.0938 407.989C81.696 407.617 81.2169 407.432 80.6562 407.432C79.8153 407.432 79.1581 407.847 78.6847 408.676C78.2112 409.502 77.9744 410.67 77.9744 412.182C77.9744 413.189 78.0805 414.045 78.2926 414.75C78.5047 415.455 78.8097 415.991 79.2074 416.358C79.6089 416.725 80.0919 416.909 80.6562 416.909Z" fill="white"/>
<path d="M41.2955 375.364V387H39.8864V376.841H39.8182L36.9773 378.727V377.295L39.8864 375.364H41.2955ZM48.2784 387.159C47.6117 387.159 47.0114 387.027 46.4773 386.761C45.9432 386.496 45.5152 386.133 45.1932 385.67C44.8712 385.208 44.6951 384.682 44.6648 384.091H46.0284C46.0814 384.617 46.3201 385.053 46.7443 385.398C47.1723 385.739 47.6837 385.909 48.2784 385.909C48.7557 385.909 49.1799 385.797 49.5511 385.574C49.9261 385.35 50.2197 385.044 50.4318 384.653C50.6477 384.259 50.7557 383.814 50.7557 383.318C50.7557 382.811 50.6439 382.358 50.4205 381.96C50.2008 381.559 49.8977 381.242 49.5114 381.011C49.125 380.78 48.6837 380.663 48.1875 380.659C47.8314 380.655 47.4659 380.71 47.0909 380.824C46.7159 380.934 46.4072 381.076 46.1648 381.25L44.8466 381.091L45.5511 375.364H51.5966V376.614H46.733L46.3239 380.045H46.392C46.6307 379.856 46.9299 379.699 47.2898 379.574C47.6496 379.449 48.0246 379.386 48.4148 379.386C49.1269 379.386 49.7614 379.557 50.3182 379.898C50.8788 380.235 51.3182 380.697 51.6364 381.284C51.9583 381.871 52.1193 382.542 52.1193 383.295C52.1193 384.038 51.9527 384.701 51.6193 385.284C51.2898 385.864 50.8352 386.322 50.2557 386.659C49.6761 386.992 49.017 387.159 48.2784 387.159ZM62.581 375.205C63.0582 375.208 63.5355 375.299 64.0128 375.477C64.4901 375.655 64.9257 375.951 65.3196 376.364C65.7135 376.773 66.0298 377.331 66.2685 378.04C66.5071 378.748 66.6264 379.636 66.6264 380.705C66.6264 381.739 66.5279 382.657 66.331 383.46C66.1378 384.259 65.8575 384.934 65.4901 385.483C65.1264 386.032 64.6832 386.449 64.1605 386.733C63.6416 387.017 63.0545 387.159 62.3991 387.159C61.7476 387.159 61.1662 387.03 60.6548 386.773C60.1473 386.511 59.7306 386.15 59.4048 385.688C59.0829 385.222 58.8764 384.682 58.7855 384.068H60.1719C60.2969 384.602 60.545 385.044 60.9162 385.392C61.2912 385.737 61.7855 385.909 62.3991 385.909C63.2969 385.909 64.0052 385.517 64.5241 384.733C65.0469 383.949 65.3082 382.841 65.3082 381.409H65.2173C65.0052 381.727 64.7533 382.002 64.4616 382.233C64.17 382.464 63.8461 382.642 63.4901 382.767C63.134 382.892 62.7552 382.955 62.3537 382.955C61.687 382.955 61.0753 382.79 60.5185 382.46C59.9654 382.127 59.5223 381.67 59.1889 381.091C58.8594 380.508 58.6946 379.841 58.6946 379.091C58.6946 378.379 58.8537 377.727 59.1719 377.136C59.4938 376.542 59.9446 376.068 60.5241 375.716C61.1075 375.364 61.7931 375.193 62.581 375.205ZM62.581 376.455C62.1037 376.455 61.6738 376.574 61.2912 376.812C60.9124 377.047 60.6113 377.366 60.3878 377.767C60.1681 378.165 60.0582 378.606 60.0582 379.091C60.0582 379.576 60.1643 380.017 60.3764 380.415C60.5923 380.809 60.8859 381.123 61.2571 381.358C61.6321 381.589 62.0582 381.705 62.5355 381.705C62.8954 381.705 63.2306 381.634 63.5412 381.494C63.8518 381.35 64.1226 381.155 64.3537 380.909C64.5885 380.659 64.7723 380.377 64.9048 380.062C65.0374 379.744 65.1037 379.413 65.1037 379.068C65.1037 378.614 64.9938 378.187 64.7741 377.79C64.5582 377.392 64.259 377.07 63.8764 376.824C63.4976 376.578 63.0658 376.455 62.581 376.455ZM72.9517 375.364V387H71.5426V376.841H71.4744L68.6335 378.727V377.295L71.5426 375.364H72.9517ZM80.0938 387.159C79.2377 387.159 78.5085 386.926 77.9062 386.46C77.304 385.991 76.8438 385.311 76.5256 384.42C76.2074 383.527 76.0483 382.447 76.0483 381.182C76.0483 379.924 76.2074 378.85 76.5256 377.96C76.8475 377.066 77.3097 376.384 77.9119 375.915C78.518 375.441 79.2453 375.205 80.0938 375.205C80.9422 375.205 81.6676 375.441 82.2699 375.915C82.8759 376.384 83.3381 377.066 83.6562 377.96C83.9782 378.85 84.1392 379.924 84.1392 381.182C84.1392 382.447 83.9801 383.527 83.6619 384.42C83.3438 385.311 82.8835 385.991 82.2812 386.46C81.679 386.926 80.9498 387.159 80.0938 387.159ZM80.0938 385.909C80.9422 385.909 81.6013 385.5 82.071 384.682C82.5407 383.864 82.7756 382.697 82.7756 381.182C82.7756 380.174 82.6676 379.316 82.4517 378.608C82.2396 377.9 81.9328 377.36 81.5312 376.989C81.1335 376.617 80.6544 376.432 80.0938 376.432C79.2528 376.432 78.5956 376.847 78.1222 377.676C77.6487 378.502 77.4119 379.67 77.4119 381.182C77.4119 382.189 77.518 383.045 77.7301 383.75C77.9422 384.455 78.2472 384.991 78.6449 385.358C79.0464 385.725 79.5294 385.909 80.0938 385.909Z" fill="white"/>
<path d="M34.2955 96.3636V108H32.8864V97.8409H32.8182L29.9773 99.7273V98.2955L32.8864 96.3636H34.2955ZM41.733 96.3636V108H40.3239V97.8409H40.2557L37.4148 99.7273V98.2955L40.3239 96.3636H41.733ZM49.1705 96.3636V108H47.7614V97.8409H47.6932L44.8523 99.7273V98.2955L47.7614 96.3636H49.1705ZM60.8807 108.159C60.4034 108.152 59.9261 108.061 59.4489 107.886C58.9716 107.712 58.536 107.419 58.142 107.006C57.7481 106.589 57.4318 106.027 57.1932 105.318C56.9545 104.606 56.8352 103.712 56.8352 102.636C56.8352 101.606 56.9318 100.693 57.125 99.8977C57.3182 99.0985 57.5985 98.4261 57.9659 97.8807C58.3333 97.3314 58.7765 96.9148 59.2955 96.6307C59.8182 96.3466 60.4072 96.2045 61.0625 96.2045C61.714 96.2045 62.2936 96.3352 62.8011 96.5966C63.3125 96.8542 63.7292 97.214 64.0511 97.6761C64.3731 98.1383 64.5814 98.6705 64.6761 99.2727H63.2898C63.161 98.75 62.911 98.3163 62.5398 97.9716C62.1686 97.6269 61.6761 97.4545 61.0625 97.4545C60.161 97.4545 59.4508 97.8466 58.9318 98.6307C58.4167 99.4148 58.1572 100.515 58.1534 101.932H58.2443C58.4564 101.61 58.7083 101.335 59 101.108C59.2955 100.877 59.6212 100.699 59.9773 100.574C60.3333 100.449 60.7102 100.386 61.108 100.386C61.7746 100.386 62.3845 100.553 62.9375 100.886C63.4905 101.216 63.9337 101.672 64.267 102.256C64.6004 102.835 64.767 103.5 64.767 104.25C64.767 104.97 64.6061 105.629 64.2841 106.227C63.9621 106.822 63.5095 107.295 62.9261 107.648C62.3466 107.996 61.6648 108.167 60.8807 108.159ZM60.8807 106.909C61.358 106.909 61.786 106.79 62.1648 106.551C62.5473 106.312 62.8485 105.992 63.0682 105.591C63.2917 105.189 63.4034 104.742 63.4034 104.25C63.4034 103.769 63.2955 103.331 63.0795 102.938C62.8674 102.54 62.5739 102.223 62.1989 101.989C61.8277 101.754 61.4034 101.636 60.9261 101.636C60.5663 101.636 60.2311 101.708 59.9205 101.852C59.6098 101.992 59.3371 102.186 59.1023 102.432C58.8712 102.678 58.6894 102.96 58.5568 103.278C58.4242 103.593 58.358 103.924 58.358 104.273C58.358 104.735 58.4659 105.167 58.6818 105.568C58.9015 105.97 59.2008 106.294 59.5795 106.54C59.9621 106.786 60.3958 106.909 60.8807 106.909ZM70.6378 108.159C69.9711 108.159 69.3707 108.027 68.8366 107.761C68.3026 107.496 67.8745 107.133 67.5526 106.67C67.2306 106.208 67.0545 105.682 67.0241 105.091H68.3878C68.4408 105.617 68.6795 106.053 69.1037 106.398C69.5317 106.739 70.0431 106.909 70.6378 106.909C71.1151 106.909 71.5393 106.797 71.9105 106.574C72.2855 106.35 72.5791 106.044 72.7912 105.653C73.0071 105.259 73.1151 104.814 73.1151 104.318C73.1151 103.811 73.0033 103.358 72.7798 102.96C72.5601 102.559 72.2571 102.242 71.8707 102.011C71.4844 101.78 71.0431 101.663 70.5469 101.659C70.1908 101.655 69.8253 101.71 69.4503 101.824C69.0753 101.934 68.7666 102.076 68.5241 102.25L67.206 102.091L67.9105 96.3636H73.956V97.6136H69.0923L68.6832 101.045H68.7514C68.9901 100.856 69.2893 100.699 69.6491 100.574C70.009 100.449 70.384 100.386 70.7741 100.386C71.4863 100.386 72.1207 100.557 72.6776 100.898C73.2382 101.235 73.6776 101.697 73.9957 102.284C74.3177 102.871 74.4787 103.542 74.4787 104.295C74.4787 105.038 74.312 105.701 73.9787 106.284C73.6491 106.864 73.1946 107.322 72.6151 107.659C72.0355 107.992 71.3764 108.159 70.6378 108.159ZM77.0994 108L82.304 97.7045V97.6136H76.304V96.3636H83.7585V97.6818L78.5767 108H77.0994Z" fill="white"/>
<rect x="304" y="382" width="53" height="75" fill="#9AF9AF"/>
<rect x="432" y="103" width="53" height="354" fill="#F99A9A"/>
<path d="M182.061 484V482.006L186.721 477.691C187.117 477.308 187.45 476.962 187.718 476.656C187.991 476.349 188.197 476.048 188.338 475.754C188.479 475.456 188.549 475.134 188.549 474.789C188.549 474.406 188.462 474.075 188.287 473.798C188.112 473.517 187.874 473.302 187.571 473.153C187.268 472.999 186.925 472.923 186.542 472.923C186.141 472.923 185.792 473.004 185.494 473.165C185.195 473.327 184.965 473.56 184.803 473.862C184.641 474.165 184.56 474.525 184.56 474.942H181.933C181.933 474.086 182.127 473.342 182.515 472.712C182.903 472.081 183.446 471.593 184.145 471.248C184.844 470.903 185.649 470.73 186.561 470.73C187.499 470.73 188.315 470.896 189.009 471.229C189.708 471.557 190.251 472.013 190.639 472.597C191.027 473.18 191.221 473.849 191.221 474.604C191.221 475.098 191.123 475.586 190.927 476.067C190.735 476.549 190.392 477.084 189.898 477.672C189.403 478.256 188.707 478.957 187.808 479.775L185.896 481.648V481.737H191.393V484H182.061ZM198.532 484.288C197.432 484.283 196.486 484.013 195.694 483.476C194.905 482.939 194.298 482.161 193.872 481.143C193.45 480.124 193.241 478.899 193.246 477.467C193.246 476.04 193.456 474.823 193.878 473.817C194.305 472.812 194.912 472.047 195.7 471.523C196.493 470.994 197.437 470.73 198.532 470.73C199.627 470.73 200.569 470.994 201.357 471.523C202.15 472.051 202.759 472.818 203.185 473.824C203.611 474.825 203.822 476.04 203.818 477.467C203.818 478.903 203.605 480.131 203.179 481.149C202.757 482.168 202.152 482.945 201.363 483.482C200.575 484.019 199.631 484.288 198.532 484.288ZM198.532 481.993C199.282 481.993 199.881 481.616 200.328 480.862C200.775 480.107 200.997 478.976 200.993 477.467C200.993 476.474 200.89 475.648 200.686 474.987C200.486 474.327 200.2 473.83 199.829 473.498C199.463 473.165 199.03 472.999 198.532 472.999C197.786 472.999 197.189 473.372 196.742 474.118C196.295 474.864 196.069 475.98 196.064 477.467C196.064 478.473 196.165 479.312 196.365 479.986C196.569 480.655 196.857 481.158 197.228 481.494C197.599 481.827 198.033 481.993 198.532 481.993ZM211.487 470.909V484H208.719V473.536H208.642L205.645 475.415V472.961L208.885 470.909H211.487ZM215.116 484L220.543 473.261V473.172H214.221V470.909H223.406V473.204L217.973 484H215.116Z" fill="white"/>
<path d="M309.061 484V482.006L313.721 477.691C314.117 477.308 314.45 476.962 314.718 476.656C314.991 476.349 315.197 476.048 315.338 475.754C315.479 475.456 315.549 475.134 315.549 474.789C315.549 474.406 315.462 474.075 315.287 473.798C315.112 473.517 314.874 473.302 314.571 473.153C314.268 472.999 313.925 472.923 313.542 472.923C313.141 472.923 312.792 473.004 312.494 473.165C312.195 473.327 311.965 473.56 311.803 473.862C311.641 474.165 311.56 474.525 311.56 474.942H308.933C308.933 474.086 309.127 473.342 309.515 472.712C309.903 472.081 310.446 471.593 311.145 471.248C311.844 470.903 312.649 470.73 313.561 470.73C314.499 470.73 315.315 470.896 316.009 471.229C316.708 471.557 317.251 472.013 317.639 472.597C318.027 473.18 318.221 473.849 318.221 474.604C318.221 475.098 318.123 475.586 317.927 476.067C317.735 476.549 317.392 477.084 316.898 477.672C316.403 478.256 315.707 478.957 314.808 479.775L312.896 481.648V481.737H318.393V484H309.061ZM325.532 484.288C324.432 484.283 323.486 484.013 322.694 483.476C321.905 482.939 321.298 482.161 320.872 481.143C320.45 480.124 320.241 478.899 320.246 477.467C320.246 476.04 320.456 474.823 320.878 473.817C321.305 472.812 321.912 472.047 322.7 471.523C323.493 470.994 324.437 470.73 325.532 470.73C326.627 470.73 327.569 470.994 328.357 471.523C329.15 472.051 329.759 472.818 330.185 473.824C330.611 474.825 330.822 476.04 330.818 477.467C330.818 478.903 330.605 480.131 330.179 481.149C329.757 482.168 329.152 482.945 328.363 483.482C327.575 484.019 326.631 484.288 325.532 484.288ZM325.532 481.993C326.282 481.993 326.881 481.616 327.328 480.862C327.775 480.107 327.997 478.976 327.993 477.467C327.993 476.474 327.89 475.648 327.686 474.987C327.486 474.327 327.2 473.83 326.829 473.498C326.463 473.165 326.03 472.999 325.532 472.999C324.786 472.999 324.189 473.372 323.742 474.118C323.295 474.864 323.069 475.98 323.064 477.467C323.064 478.473 323.165 479.312 323.365 479.986C323.569 480.655 323.857 481.158 324.228 481.494C324.599 481.827 325.033 481.993 325.532 481.993ZM338.487 470.909V484H335.719V473.536H335.642L332.645 475.415V472.961L335.885 470.909H338.487ZM346.335 470.73C347.008 470.73 347.656 470.843 348.278 471.069C348.904 471.295 349.463 471.655 349.953 472.149C350.447 472.643 350.837 473.3 351.122 474.118C351.412 474.932 351.559 475.931 351.563 477.116C351.563 478.228 351.438 479.221 351.186 480.094C350.939 480.964 350.583 481.703 350.119 482.312C349.654 482.922 349.094 483.386 348.438 483.706C347.781 484.021 347.048 484.179 346.239 484.179C345.365 484.179 344.594 484.011 343.925 483.674C343.256 483.333 342.717 482.871 342.308 482.287C341.903 481.699 341.658 481.038 341.573 480.305H344.302C344.409 480.783 344.632 481.153 344.973 481.418C345.314 481.678 345.736 481.808 346.239 481.808C347.091 481.808 347.739 481.437 348.182 480.695C348.625 479.95 348.849 478.929 348.853 477.634H348.764C348.568 478.017 348.303 478.347 347.971 478.624C347.639 478.897 347.257 479.108 346.827 479.257C346.401 479.406 345.947 479.481 345.465 479.481C344.694 479.481 344.006 479.3 343.401 478.938C342.796 478.575 342.318 478.077 341.969 477.442C341.619 476.807 341.445 476.082 341.445 475.268C341.441 474.391 341.643 473.609 342.052 472.923C342.461 472.237 343.032 471.7 343.765 471.312C344.502 470.92 345.359 470.726 346.335 470.73ZM346.354 472.903C345.923 472.903 345.54 473.006 345.203 473.21C344.871 473.415 344.607 473.69 344.411 474.035C344.219 474.38 344.125 474.766 344.129 475.192C344.129 475.622 344.223 476.01 344.411 476.355C344.602 476.696 344.862 476.969 345.191 477.173C345.523 477.374 345.902 477.474 346.328 477.474C346.648 477.474 346.944 477.414 347.217 477.295C347.49 477.175 347.726 477.011 347.926 476.803C348.131 476.589 348.291 476.344 348.406 476.067C348.521 475.79 348.578 475.496 348.578 475.185C348.574 474.772 348.476 474.393 348.284 474.048C348.093 473.702 347.828 473.425 347.492 473.217C347.155 473.008 346.776 472.903 346.354 472.903Z" fill="white"/>
<path d="M437.061 484V482.006L441.721 477.691C442.117 477.308 442.45 476.962 442.718 476.656C442.991 476.349 443.197 476.048 443.338 475.754C443.479 475.456 443.549 475.134 443.549 474.789C443.549 474.406 443.462 474.075 443.287 473.798C443.112 473.517 442.874 473.302 442.571 473.153C442.268 472.999 441.925 472.923 441.542 472.923C441.141 472.923 440.792 473.004 440.494 473.165C440.195 473.327 439.965 473.56 439.803 473.862C439.641 474.165 439.56 474.525 439.56 474.942H436.933C436.933 474.086 437.127 473.342 437.515 472.712C437.903 472.081 438.446 471.593 439.145 471.248C439.844 470.903 440.649 470.73 441.561 470.73C442.499 470.73 443.315 470.896 444.009 471.229C444.708 471.557 445.251 472.013 445.639 472.597C446.027 473.18 446.221 473.849 446.221 474.604C446.221 475.098 446.123 475.586 445.927 476.067C445.735 476.549 445.392 477.084 444.898 477.672C444.403 478.256 443.707 478.957 442.808 479.775L440.896 481.648V481.737H446.393V484H437.061ZM453.532 484.288C452.432 484.283 451.486 484.013 450.694 483.476C449.905 482.939 449.298 482.161 448.872 481.143C448.45 480.124 448.241 478.899 448.246 477.467C448.246 476.04 448.456 474.823 448.878 473.817C449.305 472.812 449.912 472.047 450.7 471.523C451.493 470.994 452.437 470.73 453.532 470.73C454.627 470.73 455.569 470.994 456.357 471.523C457.15 472.051 457.759 472.818 458.185 473.824C458.611 474.825 458.822 476.04 458.818 477.467C458.818 478.903 458.605 480.131 458.179 481.149C457.757 482.168 457.152 482.945 456.363 483.482C455.575 484.019 454.631 484.288 453.532 484.288ZM453.532 481.993C454.282 481.993 454.881 481.616 455.328 480.862C455.775 480.107 455.997 478.976 455.993 477.467C455.993 476.474 455.89 475.648 455.686 474.987C455.486 474.327 455.2 473.83 454.829 473.498C454.463 473.165 454.03 472.999 453.532 472.999C452.786 472.999 452.189 473.372 451.742 474.118C451.295 474.864 451.069 475.98 451.064 477.467C451.064 478.473 451.165 479.312 451.365 479.986C451.569 480.655 451.857 481.158 452.228 481.494C452.599 481.827 453.033 481.993 453.532 481.993ZM460.792 484V482.006L465.451 477.691C465.848 477.308 466.18 476.962 466.449 476.656C466.721 476.349 466.928 476.048 467.069 475.754C467.209 475.456 467.279 475.134 467.279 474.789C467.279 474.406 467.192 474.075 467.017 473.798C466.843 473.517 466.604 473.302 466.301 473.153C465.999 472.999 465.656 472.923 465.272 472.923C464.872 472.923 464.522 473.004 464.224 473.165C463.926 473.327 463.696 473.56 463.534 473.862C463.372 474.165 463.291 474.525 463.291 474.942H460.664C460.664 474.086 460.858 473.342 461.245 472.712C461.633 472.081 462.176 471.593 462.875 471.248C463.574 470.903 464.38 470.73 465.292 470.73C466.229 470.73 467.045 470.896 467.74 471.229C468.439 471.557 468.982 472.013 469.37 472.597C469.757 473.18 469.951 473.849 469.951 474.604C469.951 475.098 469.853 475.586 469.657 476.067C469.466 476.549 469.123 477.084 468.628 477.672C468.134 478.256 467.437 478.957 466.538 479.775L464.627 481.648V481.737H470.124V484H460.792ZM477.825 470.909V484H475.057V473.536H474.98L471.982 475.415V472.961L475.223 470.909H477.825Z" fill="white"/>
<path d="M47.4952 46H45.5179L48.5307 37.2727H50.9086L53.9171 46H51.9398L49.7537 39.267H49.6855L47.4952 46ZM47.3716 42.5696H52.0421V44.0099H47.3716V42.5696ZM56.7488 42.2159V46H54.9334V39.4545H56.6635V40.6094H56.7402C56.8851 40.2287 57.128 39.9276 57.4689 39.706C57.8098 39.4815 58.2232 39.3693 58.709 39.3693C59.1635 39.3693 59.5598 39.4688 59.8979 39.6676C60.236 39.8665 60.4988 40.1506 60.6863 40.5199C60.8738 40.8864 60.9675 41.3239 60.9675 41.8324V46H59.1522V42.1562C59.155 41.7557 59.0527 41.4432 58.8453 41.2188C58.638 40.9915 58.3525 40.8778 57.9888 40.8778C57.7445 40.8778 57.5286 40.9304 57.3411 41.0355C57.1564 41.1406 57.0115 41.294 56.9064 41.4957C56.8042 41.6946 56.7516 41.9347 56.7488 42.2159ZM65.8798 39.4545V40.8182H61.938V39.4545H65.8798ZM62.8329 37.8864H64.6483V43.9886C64.6483 44.1562 64.6738 44.2869 64.725 44.3807C64.7761 44.4716 64.8471 44.5355 64.938 44.5724C65.0318 44.6094 65.1397 44.6278 65.2619 44.6278C65.3471 44.6278 65.4324 44.6207 65.5176 44.6065C65.6028 44.5895 65.6681 44.5767 65.7136 44.5682L65.9991 45.919C65.9082 45.9474 65.7804 45.9801 65.6156 46.017C65.4508 46.0568 65.2505 46.081 65.0147 46.0895C64.5772 46.1065 64.1937 46.0483 63.8642 45.9148C63.5375 45.7812 63.2832 45.5739 63.1014 45.2926C62.9196 45.0114 62.8301 44.6562 62.8329 44.2273V37.8864ZM68.9288 46.1236C68.5112 46.1236 68.139 46.0511 67.8123 45.9062C67.4856 45.7585 67.2271 45.5412 67.0368 45.2543C66.8493 44.9645 66.7555 44.6037 66.7555 44.1719C66.7555 43.8082 66.8223 43.5028 66.9558 43.2557C67.0893 43.0085 67.2711 42.8097 67.5012 42.6591C67.7314 42.5085 67.9927 42.3949 68.2853 42.3182C68.5808 42.2415 68.8904 42.1875 69.2143 42.1562C69.595 42.1165 69.9018 42.0795 70.1348 42.0455C70.3677 42.0085 70.5368 41.9545 70.6419 41.8835C70.747 41.8125 70.7995 41.7074 70.7995 41.5682V41.5426C70.7995 41.2727 70.7143 41.0639 70.5439 40.9162C70.3762 40.7685 70.1376 40.6946 69.8279 40.6946C69.5012 40.6946 69.2413 40.767 69.0481 40.9119C68.8549 41.054 68.7271 41.233 68.6646 41.4489L66.9856 41.3125C67.0708 40.9148 67.2385 40.571 67.4885 40.2812C67.7385 39.9886 68.0609 39.7642 68.4558 39.608C68.8535 39.4489 69.3137 39.3693 69.8365 39.3693C70.2001 39.3693 70.5481 39.4119 70.8805 39.4972C71.2157 39.5824 71.5126 39.7145 71.7711 39.8935C72.0325 40.0724 72.2385 40.3026 72.389 40.5838C72.5396 40.8622 72.6149 41.196 72.6149 41.5852V46H70.8933V45.0923H70.8422C70.737 45.2969 70.5964 45.4773 70.4203 45.6335C70.2441 45.7869 70.0325 45.9077 69.7853 45.9957C69.5382 46.081 69.2527 46.1236 68.9288 46.1236ZM69.4487 44.8707C69.7157 44.8707 69.9515 44.8182 70.1561 44.7131C70.3606 44.6051 70.5211 44.4602 70.6376 44.2784C70.7541 44.0966 70.8123 43.8906 70.8123 43.6605V42.9659C70.7555 43.0028 70.6774 43.0369 70.5779 43.0682C70.4814 43.0966 70.372 43.1236 70.2498 43.1491C70.1277 43.1719 70.0055 43.1932 69.8833 43.2131C69.7612 43.2301 69.6504 43.2457 69.551 43.2599C69.3379 43.2912 69.1518 43.3409 68.9927 43.4091C68.8336 43.4773 68.71 43.5696 68.622 43.6861C68.5339 43.7997 68.4899 43.9418 68.4899 44.1122C68.4899 44.3594 68.5794 44.5483 68.7583 44.679C68.9402 44.8068 69.1703 44.8707 69.4487 44.8707ZM75.8386 37.2727V46H74.0233V37.2727H75.8386ZM79.1081 37.2727V46H77.2928V37.2727H79.1081ZM83.3397 48.4545V39.4545H85.1294V40.554H85.2104C85.29 40.3778 85.405 40.1989 85.5556 40.017C85.709 39.8324 85.9078 39.679 86.1522 39.5568C86.3993 39.4318 86.7061 39.3693 87.0726 39.3693C87.5499 39.3693 87.9902 39.4943 88.3936 39.7443C88.7971 39.9915 89.1195 40.3651 89.361 40.8651C89.6025 41.3622 89.7232 41.9858 89.7232 42.7358C89.7232 43.4659 89.6053 44.0824 89.3695 44.5852C89.1365 45.0852 88.8184 45.4645 88.415 45.723C88.0144 45.9787 87.5655 46.1065 87.0684 46.1065C86.7161 46.1065 86.4164 46.0483 86.1692 45.9318C85.9249 45.8153 85.7246 45.669 85.5684 45.4929C85.4121 45.3139 85.2928 45.1335 85.2104 44.9517H85.155V48.4545H83.3397ZM85.1167 42.7273C85.1167 43.1165 85.1706 43.456 85.2786 43.7457C85.3865 44.0355 85.5428 44.2614 85.7473 44.4233C85.9519 44.5824 86.2005 44.6619 86.4931 44.6619C86.7885 44.6619 87.0385 44.581 87.2431 44.419C87.4476 44.2543 87.6025 44.027 87.7076 43.7372C87.8155 43.4446 87.8695 43.108 87.8695 42.7273C87.8695 42.3494 87.8169 42.017 87.7118 41.7301C87.6067 41.4432 87.4519 41.2187 87.2473 41.0568C87.0428 40.8949 86.7914 40.8139 86.4931 40.8139C86.1976 40.8139 85.9476 40.892 85.7431 41.0483C85.5414 41.2045 85.3865 41.4261 85.2786 41.7131C85.1706 42 85.1167 42.3381 85.1167 42.7273ZM95.1309 43.2131V39.4545H96.9462V46H95.2033V44.8111H95.1351C94.9874 45.1946 94.7417 45.5028 94.3979 45.7358C94.057 45.9687 93.6408 46.0852 93.1493 46.0852C92.7118 46.0852 92.3269 45.9858 91.9945 45.7869C91.6621 45.5881 91.4022 45.3054 91.2147 44.9389C91.03 44.5724 90.9363 44.1335 90.9334 43.6222V39.4545H92.7488V43.2983C92.7516 43.6847 92.8553 43.9901 93.0598 44.2145C93.2644 44.4389 93.5385 44.5511 93.8823 44.5511C94.101 44.5511 94.3056 44.5014 94.4959 44.402C94.6863 44.2997 94.8397 44.1491 94.9561 43.9503C95.0755 43.7514 95.1337 43.5057 95.1309 43.2131ZM100.043 44.1165L100.047 41.9389H100.312L102.408 39.4545H104.492L101.675 42.7443H101.245L100.043 44.1165ZM98.3983 46V37.2727H100.214V46H98.3983ZM102.489 46L100.563 43.1491L101.773 41.8665L104.616 46H102.489ZM107.028 44.1165L107.032 41.9389H107.296L109.393 39.4545H111.476L108.66 42.7443H108.229L107.028 44.1165ZM105.383 46V37.2727H107.198V46H105.383ZM109.474 46L107.547 43.1491L108.758 41.8665L111.6 46H109.474ZM115.08 46.1278C114.407 46.1278 113.828 45.9915 113.342 45.7188C112.859 45.4432 112.487 45.054 112.225 44.5511C111.964 44.0455 111.833 43.4474 111.833 42.7571C111.833 42.0838 111.964 41.4929 112.225 40.9844C112.487 40.4759 112.855 40.0795 113.329 39.7955C113.806 39.5114 114.366 39.3693 115.008 39.3693C115.44 39.3693 115.842 39.4389 116.214 39.5781C116.589 39.7145 116.916 39.9205 117.194 40.196C117.475 40.4716 117.694 40.8182 117.85 41.2358C118.007 41.6506 118.085 42.1364 118.085 42.6932V43.1918H112.558V42.0668H116.376C116.376 41.8054 116.319 41.5739 116.205 41.3722C116.092 41.1705 115.934 41.0128 115.732 40.8991C115.534 40.7827 115.302 40.7244 115.038 40.7244C114.762 40.7244 114.518 40.7884 114.305 40.9162C114.095 41.0412 113.93 41.2102 113.811 41.4233C113.691 41.6335 113.63 41.8679 113.627 42.1264V43.196C113.627 43.5199 113.687 43.7997 113.806 44.0355C113.928 44.2713 114.1 44.4531 114.322 44.581C114.544 44.7088 114.806 44.7727 115.11 44.7727C115.312 44.7727 115.497 44.7443 115.664 44.6875C115.832 44.6307 115.975 44.5455 116.095 44.4318C116.214 44.3182 116.305 44.179 116.367 44.0142L118.046 44.125C117.961 44.5284 117.786 44.8807 117.522 45.1818C117.261 45.4801 116.923 45.7131 116.508 45.8807C116.096 46.0455 115.62 46.1278 115.08 46.1278ZM121.085 37.2727V46H119.269V37.2727H121.085ZM124.354 37.2727V46H122.539V37.2727H124.354ZM127.675 46.1236C127.257 46.1236 126.885 46.0511 126.558 45.9062C126.232 45.7585 125.973 45.5412 125.783 45.2543C125.595 44.9645 125.502 44.6037 125.502 44.1719C125.502 43.8082 125.568 43.5028 125.702 43.2557C125.835 43.0085 126.017 42.8097 126.247 42.6591C126.477 42.5085 126.739 42.3949 127.031 42.3182C127.327 42.2415 127.637 42.1875 127.96 42.1562C128.341 42.1165 128.648 42.0795 128.881 42.0455C129.114 42.0085 129.283 41.9545 129.388 41.8835C129.493 41.8125 129.546 41.7074 129.546 41.5682V41.5426C129.546 41.2727 129.46 41.0639 129.29 40.9162C129.122 40.7685 128.884 40.6946 128.574 40.6946C128.247 40.6946 127.987 40.767 127.794 40.9119C127.601 41.054 127.473 41.233 127.411 41.4489L125.732 41.3125C125.817 40.9148 125.985 40.571 126.235 40.2812C126.485 39.9886 126.807 39.7642 127.202 39.608C127.6 39.4489 128.06 39.3693 128.583 39.3693C128.946 39.3693 129.294 39.4119 129.627 39.4972C129.962 39.5824 130.259 39.7145 130.517 39.8935C130.779 40.0724 130.985 40.3026 131.135 40.5838C131.286 40.8622 131.361 41.196 131.361 41.5852V46H129.639V45.0923H129.588C129.483 45.2969 129.343 45.4773 129.166 45.6335C128.99 45.7869 128.779 45.9077 128.531 45.9957C128.284 46.081 127.999 46.1236 127.675 46.1236ZM128.195 44.8707C128.462 44.8707 128.698 44.8182 128.902 44.7131C129.107 44.6051 129.267 44.4602 129.384 44.2784C129.5 44.0966 129.558 43.8906 129.558 43.6605V42.9659C129.502 43.0028 129.423 43.0369 129.324 43.0682C129.227 43.0966 129.118 43.1236 128.996 43.1491C128.874 43.1719 128.752 43.1932 128.629 43.2131C128.507 43.2301 128.396 43.2457 128.297 43.2599C128.084 43.2912 127.898 43.3409 127.739 43.4091C127.58 43.4773 127.456 43.5696 127.368 43.6861C127.28 43.7997 127.236 43.9418 127.236 44.1122C127.236 44.3594 127.325 44.5483 127.504 44.679C127.686 44.8068 127.916 44.8707 128.195 44.8707ZM134.414 44.1165L134.419 41.9389H134.683L136.779 39.4545H138.863L136.046 42.7443H135.616L134.414 44.1165ZM132.769 46V37.2727H134.585V46H132.769ZM136.86 46L134.934 43.1491L136.144 41.8665L138.987 46H136.86ZM145.2 41.321L143.538 41.4233C143.509 41.2812 143.448 41.1534 143.355 41.0398C143.261 40.9233 143.137 40.831 142.984 40.7628C142.833 40.6918 142.653 40.6562 142.443 40.6562C142.161 40.6562 141.924 40.7159 141.731 40.8352C141.538 40.9517 141.441 41.108 141.441 41.304C141.441 41.4602 141.504 41.5923 141.629 41.7003C141.754 41.8082 141.968 41.8949 142.272 41.9602L143.457 42.1989C144.093 42.3295 144.568 42.5398 144.88 42.8295C145.193 43.1193 145.349 43.5 145.349 43.9716C145.349 44.4006 145.222 44.777 144.97 45.1009C144.72 45.4247 144.376 45.6776 143.938 45.8594C143.504 46.0384 143.002 46.1278 142.434 46.1278C141.568 46.1278 140.877 45.9474 140.363 45.5866C139.852 45.223 139.552 44.7287 139.464 44.1037L141.249 44.0099C141.303 44.2741 141.434 44.4759 141.642 44.6151C141.849 44.7514 142.115 44.8196 142.438 44.8196C142.757 44.8196 143.012 44.7585 143.205 44.6364C143.401 44.5114 143.501 44.3509 143.504 44.1548C143.501 43.9901 143.431 43.8551 143.295 43.75C143.159 43.642 142.948 43.5597 142.664 43.5028L141.531 43.277C140.892 43.1491 140.416 42.9276 140.103 42.6122C139.794 42.2969 139.639 41.8949 139.639 41.4062C139.639 40.9858 139.752 40.6236 139.98 40.3196C140.21 40.0156 140.532 39.7812 140.947 39.6165C141.365 39.4517 141.853 39.3693 142.413 39.3693C143.24 39.3693 143.89 39.544 144.365 39.8935C144.842 40.2429 145.12 40.7187 145.2 41.321ZM80.003 61.1236C79.5854 61.1236 79.2132 61.0511 78.8865 60.9062C78.5598 60.7585 78.3013 60.5412 78.111 60.2543C77.9235 59.9645 77.8297 59.6037 77.8297 59.1719C77.8297 58.8082 77.8965 58.5028 78.03 58.2557C78.1635 58.0085 78.3453 57.8097 78.5755 57.6591C78.8056 57.5085 79.0669 57.3949 79.3596 57.3182C79.655 57.2415 79.9647 57.1875 80.2885 57.1562C80.6692 57.1165 80.976 57.0795 81.209 57.0455C81.4419 57.0085 81.611 56.9545 81.7161 56.8835C81.8212 56.8125 81.8738 56.7074 81.8738 56.5682V56.5426C81.8738 56.2727 81.7885 56.0639 81.6181 55.9162C81.4505 55.7685 81.2118 55.6946 80.9022 55.6946C80.5755 55.6946 80.3155 55.767 80.1223 55.9119C79.9292 56.054 79.8013 56.233 79.7388 56.4489L78.0598 56.3125C78.1451 55.9148 78.3127 55.571 78.5627 55.2812C78.8127 54.9886 79.1351 54.7642 79.53 54.608C79.9277 54.4489 80.388 54.3693 80.9107 54.3693C81.2743 54.3693 81.6223 54.4119 81.9547 54.4972C82.29 54.5824 82.5868 54.7145 82.8453 54.8935C83.1067 55.0724 83.3127 55.3026 83.4632 55.5838C83.6138 55.8622 83.6891 56.196 83.6891 56.5852V61H81.9675V60.0923H81.9164C81.8113 60.2969 81.6706 60.4773 81.4945 60.6335C81.3184 60.7869 81.1067 60.9077 80.8596 60.9957C80.6124 61.081 80.3269 61.1236 80.003 61.1236ZM80.5229 59.8707C80.79 59.8707 81.0257 59.8182 81.2303 59.7131C81.4348 59.6051 81.5953 59.4602 81.7118 59.2784C81.8283 59.0966 81.8865 58.8906 81.8865 58.6605V57.9659C81.8297 58.0028 81.7516 58.0369 81.6522 58.0682C81.5556 58.0966 81.4462 58.1236 81.324 58.1491C81.2019 58.1719 81.0797 58.1932 80.9576 58.2131C80.8354 58.2301 80.7246 58.2457 80.6252 58.2599C80.4121 58.2912 80.226 58.3409 80.0669 58.4091C79.9078 58.4773 79.7843 58.5696 79.6962 58.6861C79.6081 58.7997 79.5641 58.9418 79.5641 59.1122C79.5641 59.3594 79.6536 59.5483 79.8326 59.679C80.0144 59.8068 80.2445 59.8707 80.5229 59.8707ZM90.9654 54.4545L88.677 61H86.6316L84.3432 54.4545H86.2608L87.6202 59.1378H87.6884L89.0435 54.4545H90.9654ZM93.7097 52.2727V61H91.8944V52.2727H93.7097ZM95.1639 61V54.4545H96.9792V61H95.1639ZM96.0758 53.6108C95.8059 53.6108 95.5744 53.5213 95.3812 53.3423C95.1909 53.1605 95.0957 52.9432 95.0957 52.6903C95.0957 52.4403 95.1909 52.2259 95.3812 52.0469C95.5744 51.8651 95.8059 51.7741 96.0758 51.7741C96.3457 51.7741 96.5758 51.8651 96.7662 52.0469C96.9593 52.2259 97.0559 52.4403 97.0559 52.6903C97.0559 52.9432 96.9593 53.1605 96.7662 53.3423C96.5758 53.5213 96.3457 53.6108 96.0758 53.6108ZM104.536 54.4545L102.247 61H100.202L97.9135 54.4545H99.8311L101.191 59.1378H101.259L102.614 54.4545H104.536ZM108.237 61.1278C107.563 61.1278 106.984 60.9915 106.498 60.7188C106.015 60.4432 105.643 60.054 105.382 59.5511C105.12 59.0455 104.99 58.4474 104.99 57.7571C104.99 57.0838 105.12 56.4929 105.382 55.9844C105.643 55.4759 106.011 55.0795 106.485 54.7955C106.963 54.5114 107.522 54.3693 108.164 54.3693C108.596 54.3693 108.998 54.4389 109.37 54.5781C109.745 54.7145 110.072 54.9205 110.35 55.196C110.632 55.4716 110.85 55.8182 111.007 56.2358C111.163 56.6506 111.241 57.1364 111.241 57.6932V58.1918H105.714V57.0668H109.532C109.532 56.8054 109.475 56.5739 109.362 56.3722C109.248 56.1705 109.09 56.0128 108.889 55.8991C108.69 55.7827 108.458 55.7244 108.194 55.7244C107.919 55.7244 107.674 55.7884 107.461 55.9162C107.251 56.0412 107.086 56.2102 106.967 56.4233C106.847 56.6335 106.786 56.8679 106.784 57.1264V58.196C106.784 58.5199 106.843 58.7997 106.963 59.0355C107.085 59.2713 107.257 59.4531 107.478 59.581C107.7 59.7088 107.963 59.7727 108.267 59.7727C108.468 59.7727 108.653 59.7443 108.82 59.6875C108.988 59.6307 109.132 59.5455 109.251 59.4318C109.37 59.3182 109.461 59.179 109.524 59.0142L111.203 59.125C111.117 59.5284 110.943 59.8807 110.678 60.1818C110.417 60.4801 110.079 60.7131 109.664 60.8807C109.252 61.0455 108.776 61.1278 108.237 61.1278ZM115.907 54.4545V55.8182H111.965V54.4545H115.907ZM112.86 52.8864H114.676V58.9886C114.676 59.1562 114.701 59.2869 114.752 59.3807C114.803 59.4716 114.874 59.5355 114.965 59.5724C115.059 59.6094 115.167 59.6278 115.289 59.6278C115.374 59.6278 115.46 59.6207 115.545 59.6065C115.63 59.5895 115.695 59.5767 115.741 59.5682L116.026 60.919C115.936 60.9474 115.808 60.9801 115.643 61.017C115.478 61.0568 115.278 61.081 115.042 61.0895C114.605 61.1065 114.221 61.0483 113.892 60.9148C113.565 60.7812 113.311 60.5739 113.129 60.2926C112.947 60.0114 112.857 59.6562 112.86 59.2273V52.8864Z" fill="white"/>
<path d="M528.263 461H526.286L529.298 452.273H531.676L534.685 461H532.707L530.521 454.267H530.453L528.263 461ZM528.139 457.57H532.81V459.01H528.139V457.57ZM530.487 451.77C530.124 451.77 529.814 451.645 529.558 451.395C529.303 451.142 529.175 450.839 529.175 450.487C529.175 450.251 529.233 450.037 529.349 449.844C529.469 449.648 529.628 449.493 529.827 449.379C530.026 449.263 530.246 449.205 530.487 449.205C530.729 449.205 530.949 449.263 531.148 449.379C531.347 449.493 531.504 449.648 531.621 449.844C531.74 450.037 531.8 450.251 531.8 450.487C531.8 450.723 531.74 450.939 531.621 451.135C531.504 451.328 531.347 451.483 531.148 451.599C530.949 451.713 530.729 451.77 530.487 451.77ZM530.487 451.041C530.646 451.041 530.781 450.987 530.892 450.879C531.003 450.771 531.058 450.639 531.058 450.483C531.058 450.33 531.003 450.199 530.892 450.091C530.781 449.983 530.646 449.929 530.487 449.929C530.328 449.932 530.192 449.987 530.078 450.095C529.967 450.203 529.912 450.334 529.912 450.487C529.912 450.641 529.967 450.773 530.078 450.884C530.189 450.991 530.325 451.044 530.487 451.041ZM535.701 461V454.455H537.461V455.597H537.529C537.648 455.19 537.849 454.884 538.13 454.676C538.411 454.466 538.735 454.361 539.102 454.361C539.192 454.361 539.29 454.366 539.396 454.378C539.501 454.389 539.593 454.405 539.673 454.425V456.036C539.587 456.01 539.469 455.987 539.319 455.967C539.168 455.947 539.031 455.938 538.906 455.938C538.638 455.938 538.4 455.996 538.19 456.112C537.982 456.226 537.817 456.385 537.695 456.589C537.576 456.794 537.516 457.03 537.516 457.297V461H535.701Z" fill="white"/>
<path d="M177 413H95" stroke="white" stroke-dasharray="2 2"/>
<path d="M304 382L95 382" stroke="white" stroke-dasharray="2 2"/>
<path d="M432 103L95 103" stroke="white" stroke-dasharray="2 2"/>
</svg>
