<svg width="470" height="59" viewBox="0 0 470 59" fill="none" xmlns="http://www.w3.org/2000/svg">
<path d="M246.651 43C246.651 57 156.151 60 154.151 43C152.151 26 170.151 9.00001 200.651 9C231.117 8.99999 246.651 29 246.651 43Z" fill="#777777" stroke="black"/>
<path fill-rule="evenodd" clip-rule="evenodd" d="M245.092 45.3533C245.802 44.5784 246.151 43.7903 246.151 43C246.151 29.3355 230.904 9.49999 200.651 9.5C190.071 9.5 181.025 11.5578 173.821 14.9398C166.021 21.2783 162.167 29.6392 163.151 38C164.726 51.3844 221.159 52.3714 245.092 45.3533Z" fill="#999999"/>
<path d="M469 43C469 57 408.439 60 407.101 43C405.763 26 417.808 9.00001 438.218 9C458.605 8.99999 469 29 469 43Z" fill="#777777" stroke="black"/>
<path fill-rule="evenodd" clip-rule="evenodd" d="M467.957 45.3533C468.432 44.5784 468.665 43.7903 468.665 43C468.665 29.3355 458.462 9.49999 438.218 9.5C431.138 9.5 425.085 11.5578 420.264 14.9398C415.044 21.2783 412.465 29.6392 413.124 38C414.177 51.3844 451.941 52.3714 467.957 45.3533Z" fill="#999999"/>
<path d="M394.651 43C394.651 57 304.151 60 302.151 43C300.151 26 318.151 9.00001 348.651 9C379.117 8.99999 394.651 29 394.651 43Z" fill="#777777" stroke="black"/>
<path fill-rule="evenodd" clip-rule="evenodd" d="M393.092 45.3533C393.802 44.5784 394.151 43.7903 394.151 43C394.151 29.3355 378.904 9.49999 348.651 9.5C338.071 9.5 329.025 11.5578 321.821 14.9398C314.021 21.2783 310.167 29.6392 311.151 38C312.726 51.3844 369.159 52.3714 393.092 45.3533Z" fill="#999999"/>
<path d="M93.651 43C93.651 57 3.151 60 1.15096 43C-0.849087 26 17.151 9.00001 47.651 9C78.1167 8.99999 93.651 29 93.651 43Z" fill="#777777" stroke="black"/>
<path fill-rule="evenodd" clip-rule="evenodd" d="M92.0922 45.3533C92.8024 44.5784 93.151 43.7903 93.151 43C93.151 29.3355 77.9039 9.49999 47.651 9.5C37.0707 9.5 28.0253 11.5578 20.8207 14.9398C13.0213 21.2783 9.16731 29.6392 10.151 38C11.7256 51.3844 68.1589 52.3714 92.0922 45.3533Z" fill="#999999"/>
<path d="M259 41.5105C259 54.8971 220.905 57.7657 220.064 41.5105C219.222 25.2552 226.798 9.00001 239.637 9C252.461 8.99999 259 28.1238 259 41.5105Z" fill="#777777" stroke="black"/>
<path fill-rule="evenodd" clip-rule="evenodd" d="M258.344 43.7607C258.643 43.0197 258.789 42.2661 258.789 41.5105C258.789 28.4446 252.371 9.47809 239.637 9.47809C235.183 9.4781 231.376 11.4457 228.343 14.6796C225.06 20.7404 223.438 28.735 223.852 36.7295C224.515 49.5276 248.269 50.4713 258.344 43.7607Z" fill="#999999"/>
<path fill-rule="evenodd" clip-rule="evenodd" d="M258.344 43.7607C258.643 43.0197 258.789 42.2661 258.789 41.5105C258.789 28.4446 252.371 9.47809 239.637 9.47809C235.183 9.4781 231.376 11.4457 228.343 14.6796C225.06 20.7404 223.438 28.735 223.852 36.7295C224.515 49.5276 248.269 50.4713 258.344 43.7607Z" fill="#999999"/>
<path d="M125 42.5105C125 55.8971 78.1144 58.7657 77.0782 42.5105C76.042 26.2552 85.3674 10 101.169 10C116.952 9.99999 125 29.1238 125 42.5105Z" fill="#777777" stroke="black"/>
<path fill-rule="evenodd" clip-rule="evenodd" d="M124.192 44.7607C124.56 44.0197 124.741 43.2661 124.741 42.5105C124.741 29.4446 116.842 10.4781 101.169 10.4781C95.6872 10.4781 91.001 12.4457 87.2685 15.6796C83.2279 21.7404 81.2312 29.735 81.7408 37.7295C82.5566 50.5276 111.793 51.4713 124.192 44.7607Z" fill="#999999"/>
<path fill-rule="evenodd" clip-rule="evenodd" d="M124.192 44.7607C124.56 44.0197 124.741 43.2661 124.741 42.5105C124.741 29.4446 116.842 10.4781 101.169 10.4781C95.6872 10.4781 91.001 12.4457 87.2685 15.6796C83.2279 21.7404 81.2312 29.735 81.7408 37.7295C82.5566 50.5276 111.793 51.4713 124.192 44.7607Z" fill="#999999"/>
<path d="M331 43.1924C331 60.5657 253.834 64.2886 252.129 43.1924C250.423 22.0962 265.771 1.00001 291.778 1C317.754 0.999992 331 25.8191 331 43.1924Z" fill="#777777" stroke="black"/>
<path fill-rule="evenodd" clip-rule="evenodd" d="M329.671 46.1128C330.276 45.1511 330.574 44.1731 330.574 43.1924C330.574 26.2354 317.573 1.62047 291.778 1.62048C282.756 1.62048 275.043 4.1741 268.9 8.37102C262.25 16.2368 258.964 26.6122 259.803 36.9876C261.145 53.5971 309.264 54.8219 329.671 46.1128Z" fill="#999999"/>
</svg>
