<svg width="602" height="489" viewBox="0 0 602 489" fill="none" xmlns="http://www.w3.org/2000/svg">
<rect x="146" y="26" width="53" height="50" transform="rotate(90 146 26)" fill="#F9F09A"/>
<rect x="196" y="150" width="53" height="100" transform="rotate(90 196 150)" fill="#9AF9AF"/>
<rect x="595" y="270" width="53" height="499" transform="rotate(90 595 270)" fill="#F99A9A"/>
<rect id="toExpand" x="595" y="414" width="53" height="499" transform="rotate(90 595 414)" fill="#F99AE4"/>
<path d="M30.9432 58V56.2273L35.0852 52.392C35.4375 52.0511 35.733 51.7443 35.9716 51.4716C36.214 51.1989 36.3977 50.9318 36.5227 50.6705C36.6477 50.4053 36.7102 50.1193 36.7102 49.8125C36.7102 49.4716 36.6326 49.178 36.4773 48.9318C36.322 48.6818 36.1098 48.4905 35.8409 48.358C35.572 48.2216 35.267 48.1534 34.9261 48.1534C34.5701 48.1534 34.2595 48.2254 33.9943 48.3693C33.7292 48.5133 33.5246 48.7197 33.3807 48.9886C33.2367 49.2576 33.1648 49.5777 33.1648 49.9489H30.8295C30.8295 49.1875 31.0019 48.5265 31.3466 47.9659C31.6913 47.4053 32.1742 46.9716 32.7955 46.6648C33.4167 46.358 34.1326 46.2045 34.9432 46.2045C35.7765 46.2045 36.5019 46.3523 37.1193 46.6477C37.7405 46.9394 38.2235 47.3447 38.5682 47.8636C38.9129 48.3826 39.0852 48.9773 39.0852 49.6477C39.0852 50.0871 38.9981 50.5208 38.8239 50.9489C38.6534 51.3769 38.3485 51.8523 37.9091 52.375C37.4697 52.8939 36.8504 53.517 36.0511 54.2443L34.3523 55.9091V55.9886H39.2386V58H30.9432ZM45.5838 58.2557C44.6065 58.2519 43.7656 58.0114 43.0611 57.5341C42.3603 57.0568 41.8205 56.3655 41.4418 55.4602C41.0668 54.5549 40.8812 53.4659 40.8849 52.1932C40.8849 50.9242 41.0724 49.8428 41.4474 48.9489C41.8262 48.0549 42.366 47.375 43.0668 46.9091C43.7713 46.4394 44.6103 46.2045 45.5838 46.2045C46.5573 46.2045 47.3944 46.4394 48.0952 46.9091C48.7997 47.3788 49.3414 48.0606 49.7202 48.9545C50.099 49.8447 50.2865 50.9242 50.2827 52.1932C50.2827 53.4697 50.0933 54.5606 49.7145 55.4659C49.3395 56.3712 48.8016 57.0625 48.1009 57.5398C47.4001 58.017 46.5611 58.2557 45.5838 58.2557ZM45.5838 56.2159C46.2505 56.2159 46.7827 55.8807 47.1804 55.2102C47.5781 54.5398 47.7751 53.5341 47.7713 52.1932C47.7713 51.3106 47.6804 50.5758 47.4986 49.9886C47.3205 49.4015 47.0668 48.9602 46.7372 48.6648C46.4115 48.3693 46.027 48.2216 45.5838 48.2216C44.9209 48.2216 44.3906 48.553 43.9929 49.2159C43.5952 49.8788 43.3944 50.8712 43.3906 52.1932C43.3906 53.0871 43.4796 53.8333 43.6577 54.4318C43.8395 55.0265 44.0952 55.4735 44.4247 55.7727C44.7543 56.0682 45.1406 56.2159 45.5838 56.2159ZM57.0994 46.3636V58H54.6392V48.6989H54.571L51.9062 50.3693V48.1875L54.7869 46.3636H57.0994ZM60.3253 58L65.1491 48.4545V48.375H59.5298V46.3636H67.6946V48.4034L62.8651 58H60.3253Z" fill="white"/>
<path d="M30.9432 178V176.227L35.0852 172.392C35.4375 172.051 35.733 171.744 35.9716 171.472C36.214 171.199 36.3977 170.932 36.5227 170.67C36.6477 170.405 36.7102 170.119 36.7102 169.812C36.7102 169.472 36.6326 169.178 36.4773 168.932C36.322 168.682 36.1098 168.491 35.8409 168.358C35.572 168.222 35.267 168.153 34.9261 168.153C34.5701 168.153 34.2595 168.225 33.9943 168.369C33.7292 168.513 33.5246 168.72 33.3807 168.989C33.2367 169.258 33.1648 169.578 33.1648 169.949H30.8295C30.8295 169.187 31.0019 168.527 31.3466 167.966C31.6913 167.405 32.1742 166.972 32.7955 166.665C33.4167 166.358 34.1326 166.205 34.9432 166.205C35.7765 166.205 36.5019 166.352 37.1193 166.648C37.7405 166.939 38.2235 167.345 38.5682 167.864C38.9129 168.383 39.0852 168.977 39.0852 169.648C39.0852 170.087 38.9981 170.521 38.8239 170.949C38.6534 171.377 38.3485 171.852 37.9091 172.375C37.4697 172.894 36.8504 173.517 36.0511 174.244L34.3523 175.909V175.989H39.2386V178H30.9432ZM45.5838 178.256C44.6065 178.252 43.7656 178.011 43.0611 177.534C42.3603 177.057 41.8205 176.366 41.4418 175.46C41.0668 174.555 40.8812 173.466 40.8849 172.193C40.8849 170.924 41.0724 169.843 41.4474 168.949C41.8262 168.055 42.366 167.375 43.0668 166.909C43.7713 166.439 44.6103 166.205 45.5838 166.205C46.5573 166.205 47.3944 166.439 48.0952 166.909C48.7997 167.379 49.3414 168.061 49.7202 168.955C50.099 169.845 50.2865 170.924 50.2827 172.193C50.2827 173.47 50.0933 174.561 49.7145 175.466C49.3395 176.371 48.8016 177.062 48.1009 177.54C47.4001 178.017 46.5611 178.256 45.5838 178.256ZM45.5838 176.216C46.2505 176.216 46.7827 175.881 47.1804 175.21C47.5781 174.54 47.7751 173.534 47.7713 172.193C47.7713 171.311 47.6804 170.576 47.4986 169.989C47.3205 169.402 47.0668 168.96 46.7372 168.665C46.4115 168.369 46.027 168.222 45.5838 168.222C44.9209 168.222 44.3906 168.553 43.9929 169.216C43.5952 169.879 43.3944 170.871 43.3906 172.193C43.3906 173.087 43.4796 173.833 43.6577 174.432C43.8395 175.027 44.0952 175.473 44.4247 175.773C44.7543 176.068 45.1406 176.216 45.5838 176.216ZM57.0994 166.364V178H54.6392V168.699H54.571L51.9062 170.369V168.188L54.7869 166.364H57.0994ZM64.0753 166.205C64.6738 166.205 65.2495 166.305 65.8026 166.506C66.3594 166.706 66.8556 167.027 67.2912 167.466C67.7306 167.905 68.0772 168.489 68.331 169.216C68.5885 169.939 68.7192 170.828 68.723 171.881C68.723 172.869 68.6113 173.752 68.3878 174.528C68.1681 175.301 67.8518 175.958 67.4389 176.5C67.026 177.042 66.5279 177.455 65.9446 177.739C65.3613 178.019 64.7098 178.159 63.9901 178.159C63.2135 178.159 62.5279 178.009 61.9332 177.71C61.3385 177.407 60.8594 176.996 60.4957 176.477C60.1359 175.955 59.9181 175.367 59.8423 174.716H62.2685C62.3632 175.14 62.562 175.47 62.8651 175.705C63.1681 175.936 63.5431 176.051 63.9901 176.051C64.7476 176.051 65.3234 175.722 65.7173 175.062C66.1113 174.4 66.3101 173.492 66.3139 172.341H66.2344C66.0601 172.682 65.8253 172.975 65.5298 173.222C65.2344 173.464 64.8954 173.652 64.5128 173.784C64.134 173.917 63.7306 173.983 63.3026 173.983C62.617 173.983 62.0052 173.822 61.4673 173.5C60.9295 173.178 60.5052 172.735 60.1946 172.17C59.884 171.606 59.7287 170.962 59.7287 170.239C59.7249 169.458 59.9048 168.763 60.2685 168.153C60.6321 167.544 61.1397 167.066 61.7912 166.722C62.4465 166.373 63.2079 166.201 64.0753 166.205ZM64.0923 168.136C63.7098 168.136 63.3688 168.227 63.0696 168.409C62.7741 168.591 62.5393 168.835 62.3651 169.142C62.1946 169.449 62.1113 169.792 62.1151 170.17C62.1151 170.553 62.1984 170.898 62.3651 171.205C62.5355 171.508 62.7666 171.75 63.0582 171.932C63.3537 172.11 63.6908 172.199 64.0696 172.199C64.3537 172.199 64.617 172.146 64.8594 172.04C65.1018 171.934 65.312 171.788 65.4901 171.602C65.6719 171.413 65.8139 171.195 65.9162 170.949C66.0185 170.703 66.0696 170.441 66.0696 170.165C66.0658 169.797 65.9787 169.46 65.8082 169.153C65.6378 168.847 65.4029 168.6 65.1037 168.415C64.8045 168.229 64.4673 168.136 64.0923 168.136Z" fill="white"/>
<path d="M30.9432 301V299.227L35.0852 295.392C35.4375 295.051 35.733 294.744 35.9716 294.472C36.214 294.199 36.3977 293.932 36.5227 293.67C36.6477 293.405 36.7102 293.119 36.7102 292.812C36.7102 292.472 36.6326 292.178 36.4773 291.932C36.322 291.682 36.1098 291.491 35.8409 291.358C35.572 291.222 35.267 291.153 34.9261 291.153C34.5701 291.153 34.2595 291.225 33.9943 291.369C33.7292 291.513 33.5246 291.72 33.3807 291.989C33.2367 292.258 33.1648 292.578 33.1648 292.949H30.8295C30.8295 292.187 31.0019 291.527 31.3466 290.966C31.6913 290.405 32.1742 289.972 32.7955 289.665C33.4167 289.358 34.1326 289.205 34.9432 289.205C35.7765 289.205 36.5019 289.352 37.1193 289.648C37.7405 289.939 38.2235 290.345 38.5682 290.864C38.9129 291.383 39.0852 291.977 39.0852 292.648C39.0852 293.087 38.9981 293.521 38.8239 293.949C38.6534 294.377 38.3485 294.852 37.9091 295.375C37.4697 295.894 36.8504 296.517 36.0511 297.244L34.3523 298.909V298.989H39.2386V301H30.9432ZM45.5838 301.256C44.6065 301.252 43.7656 301.011 43.0611 300.534C42.3603 300.057 41.8205 299.366 41.4418 298.46C41.0668 297.555 40.8812 296.466 40.8849 295.193C40.8849 293.924 41.0724 292.843 41.4474 291.949C41.8262 291.055 42.366 290.375 43.0668 289.909C43.7713 289.439 44.6103 289.205 45.5838 289.205C46.5573 289.205 47.3944 289.439 48.0952 289.909C48.7997 290.379 49.3414 291.061 49.7202 291.955C50.099 292.845 50.2865 293.924 50.2827 295.193C50.2827 296.47 50.0933 297.561 49.7145 298.466C49.3395 299.371 48.8016 300.062 48.1009 300.54C47.4001 301.017 46.5611 301.256 45.5838 301.256ZM45.5838 299.216C46.2505 299.216 46.7827 298.881 47.1804 298.21C47.5781 297.54 47.7751 296.534 47.7713 295.193C47.7713 294.311 47.6804 293.576 47.4986 292.989C47.3205 292.402 47.0668 291.96 46.7372 291.665C46.4115 291.369 46.027 291.222 45.5838 291.222C44.9209 291.222 44.3906 291.553 43.9929 292.216C43.5952 292.879 43.3944 293.871 43.3906 295.193C43.3906 296.087 43.4796 296.833 43.6577 297.432C43.8395 298.027 44.0952 298.473 44.4247 298.773C44.7543 299.068 45.1406 299.216 45.5838 299.216ZM52.0369 301V299.227L56.179 295.392C56.5313 295.051 56.8267 294.744 57.0653 294.472C57.3078 294.199 57.4915 293.932 57.6165 293.67C57.7415 293.405 57.804 293.119 57.804 292.812C57.804 292.472 57.7263 292.178 57.571 291.932C57.4157 291.682 57.2036 291.491 56.9347 291.358C56.6657 291.222 56.3608 291.153 56.0199 291.153C55.6638 291.153 55.3532 291.225 55.0881 291.369C54.8229 291.513 54.6184 291.72 54.4744 291.989C54.3305 292.258 54.2585 292.578 54.2585 292.949H51.9233C51.9233 292.187 52.0956 291.527 52.4403 290.966C52.785 290.405 53.268 289.972 53.8892 289.665C54.5104 289.358 55.2263 289.205 56.0369 289.205C56.8703 289.205 57.5956 289.352 58.2131 289.648C58.8343 289.939 59.3172 290.345 59.6619 290.864C60.0066 291.383 60.179 291.977 60.179 292.648C60.179 293.087 60.0919 293.521 59.9176 293.949C59.7472 294.377 59.4422 294.852 59.0028 295.375C58.5634 295.894 57.9441 296.517 57.1449 297.244L55.446 298.909V298.989H60.3324V301H52.0369ZM67.1776 289.364V301H64.7173V291.699H64.6491L61.9844 293.369V291.188L64.8651 289.364H67.1776Z" fill="white"/>
<path d="M30.9432 445V443.227L35.0852 439.392C35.4375 439.051 35.733 438.744 35.9716 438.472C36.214 438.199 36.3977 437.932 36.5227 437.67C36.6477 437.405 36.7102 437.119 36.7102 436.812C36.7102 436.472 36.6326 436.178 36.4773 435.932C36.322 435.682 36.1098 435.491 35.8409 435.358C35.572 435.222 35.267 435.153 34.9261 435.153C34.5701 435.153 34.2595 435.225 33.9943 435.369C33.7292 435.513 33.5246 435.72 33.3807 435.989C33.2367 436.258 33.1648 436.578 33.1648 436.949H30.8295C30.8295 436.187 31.0019 435.527 31.3466 434.966C31.6913 434.405 32.1742 433.972 32.7955 433.665C33.4167 433.358 34.1326 433.205 34.9432 433.205C35.7765 433.205 36.5019 433.352 37.1193 433.648C37.7405 433.939 38.2235 434.345 38.5682 434.864C38.9129 435.383 39.0852 435.977 39.0852 436.648C39.0852 437.087 38.9981 437.521 38.8239 437.949C38.6534 438.377 38.3485 438.852 37.9091 439.375C37.4697 439.894 36.8504 440.517 36.0511 441.244L34.3523 442.909V442.989H39.2386V445H30.9432ZM45.5838 445.256C44.6065 445.252 43.7656 445.011 43.0611 444.534C42.3603 444.057 41.8205 443.366 41.4418 442.46C41.0668 441.555 40.8812 440.466 40.8849 439.193C40.8849 437.924 41.0724 436.843 41.4474 435.949C41.8262 435.055 42.366 434.375 43.0668 433.909C43.7713 433.439 44.6103 433.205 45.5838 433.205C46.5573 433.205 47.3944 433.439 48.0952 433.909C48.7997 434.379 49.3414 435.061 49.7202 435.955C50.099 436.845 50.2865 437.924 50.2827 439.193C50.2827 440.47 50.0933 441.561 49.7145 442.466C49.3395 443.371 48.8016 444.062 48.1009 444.54C47.4001 445.017 46.5611 445.256 45.5838 445.256ZM45.5838 443.216C46.2505 443.216 46.7827 442.881 47.1804 442.21C47.5781 441.54 47.7751 440.534 47.7713 439.193C47.7713 438.311 47.6804 437.576 47.4986 436.989C47.3205 436.402 47.0668 435.96 46.7372 435.665C46.4115 435.369 46.027 435.222 45.5838 435.222C44.9209 435.222 44.3906 435.553 43.9929 436.216C43.5952 436.879 43.3944 437.871 43.3906 439.193C43.3906 440.087 43.4796 440.833 43.6577 441.432C43.8395 442.027 44.0952 442.473 44.4247 442.773C44.7543 443.068 45.1406 443.216 45.5838 443.216ZM52.0369 445V443.227L56.179 439.392C56.5313 439.051 56.8267 438.744 57.0653 438.472C57.3078 438.199 57.4915 437.932 57.6165 437.67C57.7415 437.405 57.804 437.119 57.804 436.812C57.804 436.472 57.7263 436.178 57.571 435.932C57.4157 435.682 57.2036 435.491 56.9347 435.358C56.6657 435.222 56.3608 435.153 56.0199 435.153C55.6638 435.153 55.3532 435.225 55.0881 435.369C54.8229 435.513 54.6184 435.72 54.4744 435.989C54.3305 436.258 54.2585 436.578 54.2585 436.949H51.9233C51.9233 436.187 52.0956 435.527 52.4403 434.966C52.785 434.405 53.268 433.972 53.8892 433.665C54.5104 433.358 55.2263 433.205 56.0369 433.205C56.8703 433.205 57.5956 433.352 58.2131 433.648C58.8343 433.939 59.3172 434.345 59.6619 434.864C60.0066 435.383 60.179 435.977 60.179 436.648C60.179 437.087 60.0919 437.521 59.9176 437.949C59.7472 438.377 59.4422 438.852 59.0028 439.375C58.5634 439.894 57.9441 440.517 57.1449 441.244L55.446 442.909V442.989H60.3324V445H52.0369ZM66.4162 445.159C65.5677 445.159 64.812 445.013 64.1491 444.722C63.4901 444.426 62.9692 444.021 62.5866 443.506C62.2079 442.987 62.0128 442.388 62.0014 441.71H64.4787C64.4938 441.994 64.5866 442.244 64.7571 442.46C64.9313 442.672 65.1624 442.837 65.4503 442.955C65.7382 443.072 66.062 443.131 66.4219 443.131C66.7969 443.131 67.1283 443.064 67.4162 442.932C67.7041 442.799 67.9295 442.616 68.0923 442.381C68.2552 442.146 68.3366 441.875 68.3366 441.568C68.3366 441.258 68.2495 440.983 68.0753 440.744C67.9048 440.502 67.6586 440.312 67.3366 440.176C67.0185 440.04 66.6397 439.972 66.2003 439.972H65.1151V438.165H66.2003C66.5715 438.165 66.8991 438.1 67.1832 437.972C67.4711 437.843 67.6946 437.665 67.8537 437.438C68.0128 437.206 68.0923 436.938 68.0923 436.631C68.0923 436.339 68.0223 436.083 67.8821 435.864C67.7457 435.64 67.5526 435.466 67.3026 435.341C67.0563 435.216 66.7685 435.153 66.4389 435.153C66.1056 435.153 65.8007 435.214 65.5241 435.335C65.2476 435.453 65.026 435.621 64.8594 435.841C64.6927 436.061 64.6037 436.318 64.5923 436.614H62.2344C62.2457 435.943 62.437 435.352 62.8082 434.841C63.1795 434.33 63.6795 433.93 64.3082 433.642C64.9408 433.35 65.6548 433.205 66.4503 433.205C67.2533 433.205 67.956 433.35 68.5582 433.642C69.1605 433.934 69.6283 434.328 69.9616 434.824C70.2988 435.316 70.4654 435.869 70.4616 436.483C70.4654 437.134 70.2628 437.678 69.8537 438.114C69.4484 438.549 68.92 438.826 68.2685 438.943V439.034C69.1245 439.144 69.776 439.441 70.223 439.926C70.6738 440.407 70.8973 441.009 70.8935 441.733C70.8973 442.396 70.706 442.985 70.3196 443.5C69.937 444.015 69.4086 444.42 68.7344 444.716C68.0601 445.011 67.2874 445.159 66.4162 445.159Z" fill="white"/>
<circle cx="49" cy="53" r="29.5" stroke="white"/>
<circle cx="49" cy="173" r="29.5" stroke="white"/>
<circle cx="49" cy="296" r="29.5" stroke="white"/>
<circle cx="49" cy="440" r="29.5" stroke="white"/>
<circle cx="49.5" cy="90.5" r="3.5" fill="#C4C4C4"/>
<circle cx="49.5" cy="210.5" r="3.5" fill="#C4C4C4"/>
<circle cx="50.5" cy="336.5" r="3.5" fill="#C4C4C4"/>
<circle cx="49.5" cy="99.5" r="3.5" fill="#C4C4C4"/>
<circle cx="49.5" cy="219.5" r="3.5" fill="#C4C4C4"/>
<circle cx="50.5" cy="345.5" r="3.5" fill="#C4C4C4"/>
<circle cx="49.5" cy="108.5" r="3.5" fill="#C4C4C4"/>
<circle cx="49.5" cy="228.5" r="3.5" fill="#C4C4C4"/>
<circle cx="50.5" cy="354.5" r="3.5" fill="#C4C4C4"/>
<circle cx="49.5" cy="117.5" r="3.5" fill="#C4C4C4"/>
<circle cx="49.5" cy="237.5" r="3.5" fill="#C4C4C4"/>
<circle cx="50.5" cy="363.5" r="3.5" fill="#C4C4C4"/>
<circle cx="49.5" cy="126.5" r="3.5" fill="#C4C4C4"/>
<circle cx="49.5" cy="246.5" r="3.5" fill="#C4C4C4"/>
<circle cx="50.5" cy="372.5" r="3.5" fill="#C4C4C4"/>
<circle cx="50.5" cy="390.5" r="3.5" fill="#C4C4C4"/>
<circle cx="50.5" cy="381.5" r="3.5" fill="#C4C4C4"/>
<circle cx="50.5" cy="399.5" r="3.5" fill="#C4C4C4"/>
<circle cx="49.5" cy="135.5" r="3.5" fill="#C4C4C4"/>
<circle cx="49.5" cy="255.5" r="3.5" fill="#C4C4C4"/>
<path d="M105.409 58.1591C104.811 58.1553 104.233 58.0549 103.676 57.858C103.123 57.661 102.627 57.3409 102.188 56.8977C101.748 56.4545 101.4 55.8674 101.142 55.1364C100.888 54.4053 100.761 53.5076 100.761 52.4432C100.765 51.4659 100.877 50.5928 101.097 49.8239C101.32 49.0511 101.638 48.3958 102.051 47.858C102.468 47.3201 102.966 46.911 103.545 46.6307C104.125 46.3466 104.775 46.2045 105.494 46.2045C106.271 46.2045 106.956 46.3561 107.551 46.6591C108.146 46.9583 108.623 47.3655 108.983 47.8807C109.347 48.3958 109.566 48.9735 109.642 49.6136H107.216C107.121 49.2083 106.922 48.8902 106.619 48.6591C106.316 48.428 105.941 48.3125 105.494 48.3125C104.737 48.3125 104.161 48.642 103.767 49.3011C103.377 49.9602 103.178 50.8561 103.17 51.9886H103.25C103.424 51.6439 103.659 51.3504 103.955 51.108C104.254 50.8617 104.593 50.6742 104.972 50.5455C105.354 50.4129 105.758 50.3466 106.182 50.3466C106.871 50.3466 107.485 50.5095 108.023 50.8352C108.561 51.1572 108.985 51.6004 109.295 52.1648C109.606 52.7292 109.761 53.375 109.761 54.1023C109.761 54.8902 109.578 55.5909 109.21 56.2045C108.847 56.8182 108.337 57.2992 107.682 57.6477C107.03 57.9924 106.273 58.1629 105.409 58.1591ZM105.398 56.2273C105.777 56.2273 106.116 56.1364 106.415 55.9545C106.714 55.7727 106.949 55.5265 107.119 55.2159C107.29 54.9053 107.375 54.5568 107.375 54.1705C107.375 53.7841 107.29 53.4375 107.119 53.1307C106.953 52.8239 106.722 52.5795 106.426 52.3977C106.131 52.2159 105.794 52.125 105.415 52.125C105.131 52.125 104.867 52.178 104.625 52.2841C104.386 52.3902 104.176 52.5379 103.994 52.7273C103.816 52.9167 103.676 53.1364 103.574 53.3864C103.472 53.6326 103.42 53.8958 103.42 54.1761C103.42 54.5511 103.506 54.8939 103.676 55.2045C103.85 55.5152 104.085 55.7633 104.381 55.9489C104.68 56.1345 105.019 56.2273 105.398 56.2273ZM119.51 58.1591C118.661 58.1591 117.906 58.0133 117.243 57.7216C116.584 57.4261 116.063 57.0208 115.68 56.5057C115.302 55.9867 115.107 55.3883 115.095 54.7102H117.572C117.588 54.9943 117.68 55.2443 117.851 55.4602C118.025 55.6723 118.256 55.8371 118.544 55.9545C118.832 56.072 119.156 56.1307 119.516 56.1307C119.891 56.1307 120.222 56.0644 120.51 55.9318C120.798 55.7992 121.023 55.6155 121.186 55.3807C121.349 55.1458 121.43 54.875 121.43 54.5682C121.43 54.2576 121.343 53.983 121.169 53.7443C120.999 53.5019 120.752 53.3125 120.43 53.1761C120.112 53.0398 119.733 52.9716 119.294 52.9716H118.209V51.1648H119.294C119.665 51.1648 119.993 51.1004 120.277 50.9716C120.565 50.8428 120.788 50.6648 120.947 50.4375C121.107 50.2064 121.186 49.9375 121.186 49.6307C121.186 49.339 121.116 49.0833 120.976 48.8636C120.839 48.6402 120.646 48.4659 120.396 48.3409C120.15 48.2159 119.862 48.1534 119.533 48.1534C119.199 48.1534 118.894 48.214 118.618 48.3352C118.341 48.4527 118.12 48.6212 117.953 48.8409C117.786 49.0606 117.697 49.3182 117.686 49.6136H115.328C115.339 48.9432 115.531 48.3523 115.902 47.8409C116.273 47.3295 116.773 46.9299 117.402 46.642C118.035 46.3504 118.749 46.2045 119.544 46.2045C120.347 46.2045 121.05 46.3504 121.652 46.642C122.254 46.9337 122.722 47.3277 123.055 47.8239C123.393 48.3163 123.559 48.8693 123.555 49.483C123.559 50.1345 123.357 50.678 122.947 51.1136C122.542 51.5492 122.014 51.8258 121.362 51.9432V52.0341C122.218 52.1439 122.87 52.4413 123.317 52.9261C123.768 53.4072 123.991 54.0095 123.987 54.733C123.991 55.3958 123.8 55.9848 123.413 56.5C123.031 57.0152 122.502 57.4205 121.828 57.7159C121.154 58.0114 120.381 58.1591 119.51 58.1591ZM129.966 46.2045C130.564 46.2045 131.14 46.3049 131.693 46.5057C132.25 46.7064 132.746 47.0265 133.182 47.4659C133.621 47.9053 133.968 48.4886 134.222 49.2159C134.479 49.9394 134.61 50.8277 134.614 51.8807C134.614 52.8693 134.502 53.7519 134.278 54.5284C134.059 55.3011 133.742 55.9583 133.33 56.5C132.917 57.0417 132.419 57.4545 131.835 57.7386C131.252 58.0189 130.6 58.1591 129.881 58.1591C129.104 58.1591 128.419 58.0095 127.824 57.7102C127.229 57.4072 126.75 56.9962 126.386 56.4773C126.027 55.9545 125.809 55.3674 125.733 54.7159H128.159C128.254 55.1402 128.453 55.4697 128.756 55.7045C129.059 55.9356 129.434 56.0511 129.881 56.0511C130.638 56.0511 131.214 55.7216 131.608 55.0625C132.002 54.3996 132.201 53.4924 132.205 52.3409H132.125C131.951 52.6818 131.716 52.9754 131.42 53.2216C131.125 53.464 130.786 53.6515 130.403 53.7841C130.025 53.9167 129.621 53.983 129.193 53.983C128.508 53.983 127.896 53.822 127.358 53.5C126.82 53.178 126.396 52.7348 126.085 52.1705C125.775 51.6061 125.619 50.9621 125.619 50.2386C125.616 49.4583 125.795 48.7633 126.159 48.1534C126.523 47.5436 127.03 47.0663 127.682 46.7216C128.337 46.3731 129.098 46.2008 129.966 46.2045ZM129.983 48.1364C129.6 48.1364 129.259 48.2273 128.96 48.4091C128.665 48.5909 128.43 48.8352 128.256 49.142C128.085 49.4489 128.002 49.7917 128.006 50.1705C128.006 50.553 128.089 50.8977 128.256 51.2045C128.426 51.5076 128.657 51.75 128.949 51.9318C129.244 52.1098 129.581 52.1989 129.96 52.1989C130.244 52.1989 130.508 52.1458 130.75 52.0398C130.992 51.9337 131.203 51.7879 131.381 51.6023C131.563 51.4129 131.705 51.1951 131.807 50.9489C131.909 50.7027 131.96 50.4413 131.96 50.1648C131.956 49.7973 131.869 49.4602 131.699 49.1534C131.528 48.8466 131.294 48.6004 130.994 48.4148C130.695 48.2292 130.358 48.1364 129.983 48.1364ZM140.881 58.2557C139.903 58.2519 139.063 58.0114 138.358 57.5341C137.657 57.0568 137.117 56.3655 136.739 55.4602C136.364 54.5549 136.178 53.4659 136.182 52.1932C136.182 50.9242 136.369 49.8428 136.744 48.9489C137.123 48.0549 137.663 47.375 138.364 46.9091C139.068 46.4394 139.907 46.2045 140.881 46.2045C141.854 46.2045 142.691 46.4394 143.392 46.9091C144.097 47.3788 144.638 48.0606 145.017 48.9545C145.396 49.8447 145.583 50.9242 145.58 52.1932C145.58 53.4697 145.39 54.5606 145.011 55.4659C144.636 56.3712 144.098 57.0625 143.398 57.5398C142.697 58.017 141.858 58.2557 140.881 58.2557ZM140.881 56.2159C141.547 56.2159 142.08 55.8807 142.477 55.2102C142.875 54.5398 143.072 53.5341 143.068 52.1932C143.068 51.3106 142.977 50.5758 142.795 49.9886C142.617 49.4015 142.364 48.9602 142.034 48.6648C141.708 48.3693 141.324 48.2216 140.881 48.2216C140.218 48.2216 139.688 48.553 139.29 49.2159C138.892 49.8788 138.691 50.8712 138.688 52.1932C138.688 53.0871 138.777 53.8333 138.955 54.4318C139.136 55.0265 139.392 55.4735 139.722 55.7727C140.051 56.0682 140.438 56.2159 140.881 56.2159Z" fill="black"/>
<path d="M127.006 170.364V182H124.545V172.699H124.477L121.812 174.369V172.188L124.693 170.364H127.006ZM134.021 182.159C133.218 182.159 132.502 182.011 131.874 181.716C131.249 181.42 130.752 181.013 130.385 180.494C130.018 179.975 129.826 179.381 129.811 178.71H132.197C132.224 179.161 132.413 179.527 132.766 179.807C133.118 180.087 133.536 180.227 134.021 180.227C134.408 180.227 134.749 180.142 135.044 179.972C135.343 179.797 135.576 179.557 135.743 179.25C135.913 178.939 135.999 178.583 135.999 178.182C135.999 177.773 135.911 177.413 135.737 177.102C135.567 176.792 135.33 176.549 135.027 176.375C134.724 176.201 134.377 176.112 133.987 176.108C133.646 176.108 133.315 176.178 132.993 176.318C132.675 176.458 132.427 176.65 132.249 176.892L130.061 176.5L130.612 170.364H137.726V172.375H132.641L132.339 175.29H132.408C132.612 175.002 132.921 174.763 133.334 174.574C133.747 174.384 134.209 174.29 134.72 174.29C135.421 174.29 136.046 174.455 136.595 174.784C137.144 175.114 137.578 175.566 137.896 176.142C138.214 176.714 138.372 177.373 138.368 178.119C138.372 178.903 138.19 179.6 137.822 180.21C137.459 180.816 136.949 181.294 136.294 181.642C135.643 181.987 134.885 182.159 134.021 182.159ZM147.997 170.205C148.596 170.205 149.171 170.305 149.724 170.506C150.281 170.706 150.777 171.027 151.213 171.466C151.652 171.905 151.999 172.489 152.253 173.216C152.51 173.939 152.641 174.828 152.645 175.881C152.645 176.869 152.533 177.752 152.31 178.528C152.09 179.301 151.774 179.958 151.361 180.5C150.948 181.042 150.45 181.455 149.866 181.739C149.283 182.019 148.632 182.159 147.912 182.159C147.135 182.159 146.45 182.009 145.855 181.71C145.26 181.407 144.781 180.996 144.418 180.477C144.058 179.955 143.84 179.367 143.764 178.716H146.19C146.285 179.14 146.484 179.47 146.787 179.705C147.09 179.936 147.465 180.051 147.912 180.051C148.67 180.051 149.245 179.722 149.639 179.062C150.033 178.4 150.232 177.492 150.236 176.341H150.156C149.982 176.682 149.747 176.975 149.452 177.222C149.156 177.464 148.817 177.652 148.435 177.784C148.056 177.917 147.652 177.983 147.224 177.983C146.539 177.983 145.927 177.822 145.389 177.5C144.851 177.178 144.427 176.735 144.116 176.17C143.806 175.606 143.651 174.962 143.651 174.239C143.647 173.458 143.827 172.763 144.19 172.153C144.554 171.544 145.062 171.066 145.713 170.722C146.368 170.373 147.13 170.201 147.997 170.205ZM148.014 172.136C147.632 172.136 147.291 172.227 146.991 172.409C146.696 172.591 146.461 172.835 146.287 173.142C146.116 173.449 146.033 173.792 146.037 174.17C146.037 174.553 146.12 174.898 146.287 175.205C146.457 175.508 146.688 175.75 146.98 175.932C147.276 176.11 147.613 176.199 147.991 176.199C148.276 176.199 148.539 176.146 148.781 176.04C149.024 175.934 149.234 175.788 149.412 175.602C149.594 175.413 149.736 175.195 149.838 174.949C149.94 174.703 149.991 174.441 149.991 174.165C149.988 173.797 149.901 173.46 149.73 173.153C149.56 172.847 149.325 172.6 149.026 172.415C148.726 172.229 148.389 172.136 148.014 172.136ZM159.412 170.364V182H156.952V172.699H156.884L154.219 174.369V172.188L157.099 170.364H159.412ZM166.74 182.256C165.763 182.252 164.922 182.011 164.217 181.534C163.517 181.057 162.977 180.366 162.598 179.46C162.223 178.555 162.037 177.466 162.041 176.193C162.041 174.924 162.229 173.843 162.604 172.949C162.982 172.055 163.522 171.375 164.223 170.909C164.928 170.439 165.767 170.205 166.74 170.205C167.714 170.205 168.551 170.439 169.251 170.909C169.956 171.379 170.498 172.061 170.876 172.955C171.255 173.845 171.443 174.924 171.439 176.193C171.439 177.47 171.25 178.561 170.871 179.466C170.496 180.371 169.958 181.062 169.257 181.54C168.556 182.017 167.717 182.256 166.74 182.256ZM166.74 180.216C167.407 180.216 167.939 179.881 168.337 179.21C168.734 178.54 168.931 177.534 168.928 176.193C168.928 175.311 168.837 174.576 168.655 173.989C168.477 173.402 168.223 172.96 167.893 172.665C167.568 172.369 167.183 172.222 166.74 172.222C166.077 172.222 165.547 172.553 165.149 173.216C164.751 173.879 164.551 174.871 164.547 176.193C164.547 177.087 164.636 177.833 164.814 178.432C164.996 179.027 165.251 179.473 165.581 179.773C165.911 180.068 166.297 180.216 166.74 180.216Z" fill="black"/>
<path d="M327.006 289.364V301H324.545V291.699H324.477L321.812 293.369V291.188L324.693 289.364H327.006ZM334.834 289.364V301H332.374V291.699H332.305L329.641 293.369V291.188L332.521 289.364H334.834ZM342.662 289.364V301H340.202V291.699H340.134L337.469 293.369V291.188L340.349 289.364H342.662ZM353.597 301.159C352.998 301.155 352.42 301.055 351.864 300.858C351.311 300.661 350.814 300.341 350.375 299.898C349.936 299.455 349.587 298.867 349.33 298.136C349.076 297.405 348.949 296.508 348.949 295.443C348.953 294.466 349.064 293.593 349.284 292.824C349.508 292.051 349.826 291.396 350.239 290.858C350.655 290.32 351.153 289.911 351.733 289.631C352.313 289.347 352.962 289.205 353.682 289.205C354.458 289.205 355.144 289.356 355.739 289.659C356.333 289.958 356.811 290.366 357.17 290.881C357.534 291.396 357.754 291.973 357.83 292.614H355.403C355.309 292.208 355.11 291.89 354.807 291.659C354.504 291.428 354.129 291.312 353.682 291.312C352.924 291.312 352.348 291.642 351.955 292.301C351.564 292.96 351.366 293.856 351.358 294.989H351.438C351.612 294.644 351.847 294.35 352.142 294.108C352.441 293.862 352.78 293.674 353.159 293.545C353.542 293.413 353.945 293.347 354.369 293.347C355.059 293.347 355.672 293.509 356.21 293.835C356.748 294.157 357.172 294.6 357.483 295.165C357.794 295.729 357.949 296.375 357.949 297.102C357.949 297.89 357.765 298.591 357.398 299.205C357.034 299.818 356.525 300.299 355.869 300.648C355.218 300.992 354.46 301.163 353.597 301.159ZM353.585 299.227C353.964 299.227 354.303 299.136 354.602 298.955C354.902 298.773 355.136 298.527 355.307 298.216C355.477 297.905 355.562 297.557 355.562 297.17C355.562 296.784 355.477 296.437 355.307 296.131C355.14 295.824 354.909 295.58 354.614 295.398C354.318 295.216 353.981 295.125 353.602 295.125C353.318 295.125 353.055 295.178 352.812 295.284C352.574 295.39 352.364 295.538 352.182 295.727C352.004 295.917 351.864 296.136 351.761 296.386C351.659 296.633 351.608 296.896 351.608 297.176C351.608 297.551 351.693 297.894 351.864 298.205C352.038 298.515 352.273 298.763 352.568 298.949C352.867 299.134 353.206 299.227 353.585 299.227ZM363.943 301.159C363.14 301.159 362.424 301.011 361.795 300.716C361.17 300.42 360.674 300.013 360.307 299.494C359.939 298.975 359.748 298.381 359.733 297.71H362.119C362.146 298.161 362.335 298.527 362.688 298.807C363.04 299.087 363.458 299.227 363.943 299.227C364.33 299.227 364.67 299.142 364.966 298.972C365.265 298.797 365.498 298.557 365.665 298.25C365.835 297.939 365.92 297.583 365.92 297.182C365.92 296.773 365.833 296.413 365.659 296.102C365.489 295.792 365.252 295.549 364.949 295.375C364.646 295.201 364.299 295.112 363.909 295.108C363.568 295.108 363.237 295.178 362.915 295.318C362.597 295.458 362.348 295.65 362.17 295.892L359.983 295.5L360.534 289.364H367.648V291.375H362.562L362.261 294.29H362.33C362.534 294.002 362.843 293.763 363.256 293.574C363.669 293.384 364.131 293.29 364.642 293.29C365.343 293.29 365.968 293.455 366.517 293.784C367.066 294.114 367.5 294.566 367.818 295.142C368.136 295.714 368.294 296.373 368.29 297.119C368.294 297.903 368.112 298.6 367.744 299.21C367.381 299.816 366.871 300.294 366.216 300.642C365.564 300.987 364.807 301.159 363.943 301.159ZM370.466 301L375.29 291.455V291.375H369.67V289.364H377.835V291.403L373.006 301H370.466Z" fill="black"/>
<path d="M348.045 440.511V440.318C348.049 439.655 348.108 439.127 348.222 438.733C348.339 438.339 348.509 438.021 348.733 437.778C348.956 437.536 349.225 437.316 349.54 437.119C349.775 436.968 349.985 436.811 350.17 436.648C350.356 436.485 350.504 436.305 350.614 436.108C350.723 435.907 350.778 435.684 350.778 435.438C350.778 435.176 350.716 434.947 350.591 434.75C350.466 434.553 350.297 434.402 350.085 434.295C349.877 434.189 349.646 434.136 349.392 434.136C349.146 434.136 348.913 434.191 348.693 434.301C348.473 434.407 348.294 434.566 348.153 434.778C348.013 434.987 347.938 435.246 347.926 435.557H345.608C345.627 434.799 345.809 434.174 346.153 433.682C346.498 433.186 346.955 432.816 347.523 432.574C348.091 432.328 348.718 432.205 349.403 432.205C350.157 432.205 350.824 432.33 351.403 432.58C351.983 432.826 352.438 433.184 352.767 433.653C353.097 434.123 353.261 434.689 353.261 435.352C353.261 435.795 353.188 436.189 353.04 436.534C352.896 436.875 352.693 437.178 352.432 437.443C352.17 437.705 351.862 437.941 351.506 438.153C351.206 438.331 350.96 438.517 350.767 438.71C350.578 438.903 350.436 439.127 350.341 439.381C350.25 439.634 350.203 439.947 350.199 440.318V440.511H348.045ZM349.17 444.148C348.792 444.148 348.468 444.015 348.199 443.75C347.934 443.481 347.803 443.159 347.807 442.784C347.803 442.413 347.934 442.095 348.199 441.83C348.468 441.564 348.792 441.432 349.17 441.432C349.53 441.432 349.847 441.564 350.119 441.83C350.392 442.095 350.53 442.413 350.534 442.784C350.53 443.034 350.464 443.263 350.335 443.472C350.21 443.676 350.045 443.841 349.841 443.966C349.636 444.087 349.413 444.148 349.17 444.148Z" fill="black"/>
</svg>
