<svg width="1512" height="158" viewBox="0 0 1512 158" fill="none" xmlns="http://www.w3.org/2000/svg">
<g filter="url(#filter0_di_109_465)">
<path d="M229 25.3173C158.6 -4.36576 4.66667 12.9494 -41 25.3173V147L1631 137.093V25.3173C1610.69 10.1755 1534.69 -12.9911 1393.13 15.4768C1254.16 42.8063 1229.96 76.0914 1015.23 25.3173C891.258 -3.99543 789.784 5.56986 618.327 25.3173C557.072 32.3724 317 62.4211 229 25.3173Z" fill="#233B77"/>
<path d="M229 25.3173C158.6 -4.36576 4.66667 12.9494 -41 25.3173V147L1631 137.093V25.3173C1610.69 10.1755 1534.69 -12.9911 1393.13 15.4768C1254.16 42.8063 1229.96 76.0914 1015.23 25.3173C891.258 -3.99543 789.784 5.56986 618.327 25.3173C557.072 32.3724 317 62.4211 229 25.3173Z" stroke="#6182D1" stroke-width="4"/>
</g>
<defs>
<filter id="filter0_di_109_465" x="-47" y="0" width="1684" height="157.012" filterUnits="userSpaceOnUse" color-interpolation-filters="sRGB">
<feFlood flood-opacity="0" result="BackgroundImageFix"/>
<feColorMatrix in="SourceAlpha" type="matrix" values="0 0 0 0 0 0 0 0 0 0 0 0 0 0 0 0 0 0 127 0" result="hardAlpha"/>
<feOffset dy="4"/>
<feGaussianBlur stdDeviation="2"/>
<feComposite in2="hardAlpha" operator="out"/>
<feColorMatrix type="matrix" values="0 0 0 0 0 0 0 0 0 0 0 0 0 0 0 0 0 0 0.25 0"/>
<feBlend mode="normal" in2="BackgroundImageFix" result="effect1_dropShadow_109_465"/>
<feBlend mode="normal" in="SourceGraphic" in2="effect1_dropShadow_109_465" result="shape"/>
<feColorMatrix in="SourceAlpha" type="matrix" values="0 0 0 0 0 0 0 0 0 0 0 0 0 0 0 0 0 0 127 0" result="hardAlpha"/>
<feOffset dy="13"/>
<feGaussianBlur stdDeviation="3.5"/>
<feComposite in2="hardAlpha" operator="arithmetic" k2="-1" k3="1"/>
<feColorMatrix type="matrix" values="0 0 0 0 1 0 0 0 0 1 0 0 0 0 1 0 0 0 0.25 0"/>
<feBlend mode="normal" in2="shape" result="effect2_innerShadow_109_465"/>
</filter>
</defs>
</svg>
