<?xml version="1.0" standalone="no"?>
<svg xmlns:xlink="http://www.w3.org/1999/xlink" id="wave" style="transform:rotate(0deg); transition: 0.3s" viewBox="0 0 1440 120" version="1.1" xmlns="http://www.w3.org/2000/svg"><defs><linearGradient id="sw-gradient-0" x1="0" x2="0" y1="1" y2="0"><stop stop-color="rgba(158, 90, 99, 1)" offset="0%"/><stop stop-color="rgba(49, 68, 85, 1)" offset="100%"/></linearGradient></defs><path style="transform:translate(0, 0px); opacity:1" fill="url(#sw-gradient-0)" d="M0,72L21.8,74C43.6,76,87,80,131,74C174.5,68,218,52,262,44C305.5,36,349,36,393,48C436.4,60,480,84,524,84C567.3,84,611,60,655,44C698.2,28,742,20,785,28C829.1,36,873,60,916,66C960,72,1004,60,1047,58C1090.9,56,1135,64,1178,68C1221.8,72,1265,72,1309,76C1352.7,80,1396,88,1440,90C1483.6,92,1527,88,1571,84C1614.5,80,1658,76,1702,80C1745.5,84,1789,96,1833,100C1876.4,104,1920,100,1964,96C2007.3,92,2051,88,2095,84C2138.2,80,2182,76,2225,80C2269.1,84,2313,96,2356,102C2400,108,2444,108,2487,100C2530.9,92,2575,76,2618,66C2661.8,56,2705,52,2749,44C2792.7,36,2836,24,2880,26C2923.6,28,2967,44,3011,42C3054.5,40,3098,20,3120,10L3141.8,0L3141.8,120L3120,120C3098.2,120,3055,120,3011,120C2967.3,120,2924,120,2880,120C2836.4,120,2793,120,2749,120C2705.5,120,2662,120,2618,120C2574.5,120,2531,120,2487,120C2443.6,120,2400,120,2356,120C2312.7,120,2269,120,2225,120C2181.8,120,2138,120,2095,120C2050.9,120,2007,120,1964,120C1920,120,1876,120,1833,120C1789.1,120,1745,120,1702,120C1658.2,120,1615,120,1571,120C1527.3,120,1484,120,1440,120C1396.4,120,1353,120,1309,120C1265.5,120,1222,120,1178,120C1134.5,120,1091,120,1047,120C1003.6,120,960,120,916,120C872.7,120,829,120,785,120C741.8,120,698,120,655,120C610.9,120,567,120,524,120C480,120,436,120,393,120C349.1,120,305,120,262,120C218.2,120,175,120,131,120C87.3,120,44,120,22,120L0,120Z"/></svg>